<?xml version="1.0" encoding="UTF-8" standalone="no"?>
<!DOCTYPE svg PUBLIC "-//W3C//DTD SVG 1.1//EN" "http://www.w3.org/Graphics/SVG/1.1/DTD/svg11.dtd">
<svg width="100%" height="100%" viewBox="0 0 958 472" version="1.1" xmlns="http://www.w3.org/2000/svg" xmlns:xlink="http://www.w3.org/1999/xlink" xml:space="preserve" xmlns:serif="http://www.serif.com/" style="fill-rule:evenodd;clip-rule:evenodd;">
    <clipPath id="_clip1">
        <rect x="538.764" y="148.097" width="495.402" height="323.903"/>
    </clipPath>
    <g clip-path="url(#_clip1)">
        <clipPath id="_clip2">
            <rect x="538.764" y="18.689" width="495.402" height="495.402"/>
        </clipPath>
        <g clip-path="url(#_clip2)">
            <path d="M762.487,514.575c-0.255,-6.447 -0.332,-12.895 -0.335,-19.342c-0.012,-29.104 -0.003,-58.207 -0.001,-87.311c0,-1.117 0,-2.234 0,-3.337c-1.351,-0.405 -2.203,0.35 -3.092,0.786c-8.383,4.106 -15.908,9.474 -22.874,15.656c-0.241,0.214 -0.468,0.444 -0.709,0.658c-3.728,3.311 -4.067,3.306 -7.779,-0.058c-0.231,-0.209 -0.5,-0.376 -0.878,-0.655c-3.133,2.292 -6.286,4.508 -9.335,6.858c-2.043,1.575 -3.805,1.573 -5.841,-0.087c-5.587,-4.555 -10.656,-9.597 -15.033,-15.327c-0.439,-0.575 -0.834,-1.189 -1.194,-1.816c-2.809,-4.895 -0.842,-8.477 4.866,-8.854c2.828,-0.187 5.377,0.85 7.933,1.852c0.867,0.34 1.8,1.088 2.629,0.06c0.698,-0.865 -0.179,-1.498 -0.595,-2.117c-1.191,-1.774 -0.511,-3.189 0.742,-4.541c5.374,-5.801 10.934,-11.404 17.228,-16.229c0.7,-0.536 1.389,-1.086 2.066,-1.616c-1.506,-3.655 -1.517,-3.666 1.529,-6.731c0.758,-0.763 1.387,-1.482 1.332,-2.689c-0.308,-6.763 2.749,-11.71 8.663,-14.68c3.236,-1.625 5.287,-3.975 6.732,-7.154c1.299,-2.859 2.766,-5.644 4.232,-8.423c0.587,-1.113 0.65,-2.074 -0.06,-3.15c-0.631,-0.956 -1.133,-2.166 -0.887,-3.208c0.811,-3.434 0.048,-6.744 -0.259,-10.128c-0.312,-3.438 1.324,-6.272 4.128,-8.275c1.116,-0.797 1.325,-1.466 0.86,-2.784c-4.295,-12.186 -7.296,-24.691 -8.792,-37.529c-0.87,-7.459 -0.814,-14.966 -0.506,-22.458c0.147,-3.57 0.55,-3.945 3.899,-4.607c1.524,-0.302 1.373,-1.306 1.386,-2.353c0.051,-4.203 0.426,-8.36 1.794,-12.371c1.249,-3.663 3.097,-6.943 6.391,-9.144c1.495,-0.999 1.407,-2.376 1.408,-3.835c0.006,-25.718 0.028,-51.435 0.03,-77.153c0.003,-40.471 -0.007,-80.942 -0.009,-121.413c-0,-0.483 0.027,-0.966 0.082,-1.673c1.028,-0.224 2.016,-0.224 3.208,-0.013c0.344,1.498 -0.119,2.881 0.719,4.223c1.794,-1.125 3.447,-2.113 3.37,-4.434l3.175,0c0.21,66.509 0.207,133.017 0.206,199.526c-0,1.048 0.049,2.097 0.011,3.144c-0.057,1.548 0.477,2.732 2.046,3.142c4.113,1.073 5.213,6.799 1.428,9.936c-0.696,0.577 -1.38,1.107 -1.391,2.13c-0.021,1.905 -0.785,3.578 -1.564,5.279c-1.058,2.31 -0.44,3.683 1.892,4.557c2.388,0.895 2.274,3.068 2.631,5.005c0.304,1.651 0.293,3.45 2.859,3.243c1.467,-0.118 1.86,-1.092 2.331,-2.099c2.583,-5.526 5.92,-10.528 10.268,-14.83c6.419,-6.352 14.003,-9.946 23.175,-9.639c1.449,0.048 2.376,-0.54 3.358,-1.485c3.132,-3.015 6.707,-4.368 11.022,-2.632c3.644,1.466 5.067,4.559 5.852,8.039c0.26,1.151 0.749,1.828 1.742,2.382c10.066,5.619 14.294,14.822 15.788,25.726c0.661,4.826 0.62,9.641 -0.028,14.447c-0.28,2.077 0.354,3.375 2.146,4.587c3.801,2.571 7.507,5.33 10.303,9.062c4.014,5.357 2.797,10.078 -3.291,12.866c-3.199,1.465 -6.626,2.07 -10.091,2.185c-4.583,0.152 -9.187,0.402 -13.751,-0.392c-1.516,-0.264 -2.737,0.179 -3.999,1.145c-1.704,1.303 -3.666,2.269 -5.512,3.795c1.239,0 2.48,0.056 3.715,-0.009c10.633,-0.562 21.271,-0.509 31.91,-0.315c3.22,0.059 6.439,0.261 9.652,0.495c1.934,0.141 3.875,0.347 4.857,2.508c0.479,1.055 1.483,0.649 2.357,0.52c3.345,-0.492 6.677,-1.079 10.075,-0.276c5.367,1.267 6.825,5.845 3.148,10.006c-1.677,1.898 -4.054,2.875 -5.938,4.45c2.213,6.251 1.154,7.043 -8.573,6.535c-0.059,0.055 -0.166,0.105 -0.171,0.164c-0.52,5.94 -4.792,6.751 -9.555,7.258c-10.754,1.145 -21.527,1.604 -32.334,1.414c-3.359,-0.059 -3.549,0.177 -3.144,3.607c0.295,2.494 0.366,4.999 -0.001,7.474c-0.213,1.433 0.18,2.404 1.159,3.439c2.095,2.214 2.582,4.826 1.027,7.535c-0.747,1.301 -0.63,2.355 0.034,3.595c3.42,6.395 6.81,12.806 10.174,19.23c1.781,3.401 1.738,3.467 -1.183,5.709c-0.185,0.65 0.254,1.074 0.6,1.494c4.732,5.74 8.569,12.095 12.625,18.301c2.117,3.239 2.075,3.683 -0.727,6.439c0.476,1.426 1.357,1.926 2.91,1.466c2.569,-0.76 5.198,-1.13 7.875,-0.668c2.505,0.433 4.655,1.477 5.648,3.99c0.959,2.427 -0.47,4.295 -1.95,5.851c-5.724,6.015 -12.469,10.663 -19.88,14.373c-1.929,0.966 -3.599,0.604 -5.024,-0.932c-2.576,-2.775 -5.167,-5.541 -7.652,-8.396c-0.929,-1.067 -1.634,-1.425 -3.034,-0.685c-3.711,1.96 -4.37,1.77 -6.958,-1.763c-8.024,-10.953 -17.607,-20.317 -28.558,-28.318c-1.591,-1.163 -2.926,-1.713 -4.993,-0.795c-3.161,1.405 -6.054,0.225 -8.258,-2.253c-1.085,-1.221 -2.225,-1.638 -3.77,-1.678c-3.388,-0.089 -6.729,-0.129 -10.081,0.706c-2.344,0.584 -3.205,1.603 -3.198,4.107c0.087,29.022 0.058,58.044 0.055,87.066c-0.001,8.062 -0.016,16.123 -0.04,24.411c-1.003,0.226 -1.991,0.226 -3.208,0.009c-0.342,-1.675 -0.041,-3.179 -0.633,-5.059c-1.614,1.796 -4.577,2.103 -3.431,5.276l-3.175,0m21.236,-233.623c0.567,5.763 2.878,10.662 7.111,14.667c7.079,6.698 15.51,10.259 25.182,10.937c10.302,0.722 18.603,-2.887 24.507,-11.533c1.196,-1.751 0.961,-6.74 -0.723,-7.867c-2.346,-1.57 -2.608,-3.916 -3.169,-6.234c-0.282,-1.167 -0.27,-2.485 -0.832,-3.487c-0.96,-1.714 -7.493,-3.525 -9.381,-2.78c-1.971,0.778 -4.025,1.263 -6.115,1.328c-3.156,0.097 -6.903,0.328 -9.041,-1.767c-2.445,-2.395 -4.64,-1.573 -7.111,-1.406c-3.51,0.237 -6.68,-0.202 -7.952,-4.176c-1.729,0.453 -2.79,1.648 -4.14,2.328c-1.072,0.539 -2.072,1.309 -3.353,1.212c-3.304,-0.252 -5.131,1.397 -5.12,4.707c0.004,1.209 0.079,2.417 0.137,4.071m39.477,-22.023c3.397,-1.104 5.791,-3.409 7.579,-6.403c2.562,-4.29 2.564,-4.317 -0.903,-7.784c-2.058,-2.058 -3.341,-4.644 -4.754,-7.244c-3.665,1.981 -7.258,3.332 -11.214,3.422c-0.841,0.019 -1.377,0.428 -1.551,1.241c-0.935,4.361 -1.013,8.647 1.354,12.644c2.14,3.614 5.173,4.979 9.489,4.123m18.039,123.113c1.434,-2.043 -0.89,-3.058 -1.292,-4.601c-0.371,-1.425 -1.443,-1.636 -2.856,-1.393c-10.097,1.738 -20.267,2.547 -30.518,2.235c-0.853,-0.026 -1.77,-0.296 -2.556,0.308c0,1.622 0.073,3.224 -0.019,4.817c-0.106,1.828 0.742,2.311 2.453,2.346c11.641,0.238 23.138,-0.825 34.787,-3.713m-79.331,-155.479c-1.82,1.433 -2.969,3.339 -3.893,5.424c-1.908,4.302 -2.01,8.887 -2.156,13.465c-0.041,1.284 0.587,1.929 1.916,1.874c0.963,-0.04 1.928,-0.012 2.892,-0.009c0.697,0.002 1.412,-0.144 1.388,-0.971c-0.078,-2.711 1.83,-2.979 3.814,-3.34c3.854,-0.702 5.774,-3.102 5.943,-7.024c0.123,-2.86 -0.67,-5.566 -1.169,-8.323c-0.415,-2.292 -2.268,-3.555 -4.538,-3.092c-1.427,0.291 -2.742,0.906 -4.199,1.997m-19.998,145.575c6.501,2.623 13.046,5.11 20.246,6.757c0,-1.924 -0.122,-3.447 0.029,-4.943c0.213,-2.106 -0.553,-3.214 -2.642,-3.81c-3.468,-0.989 -6.865,-2.232 -10.278,-3.407c-3.352,-1.154 -8.209,0.559 -10.321,3.705c0.639,0.915 1.722,1.093 2.966,1.698m152.734,-55.252c-0.012,-1.644 -1.199,-2.121 -2.484,-2.496c-3.21,-0.938 -6.382,-0.224 -9.554,0.248c-1.206,0.18 -1.354,0.952 -1.299,2.109c0.138,2.885 0.692,5.749 0.435,8.66c-0.099,1.12 -0.965,2.581 0.462,3.284c1.655,0.815 3.493,1.521 5.421,0.437c-2.672,-4.428 -2.668,-4.42 2.017,-7.2c2.003,-1.189 4.11,-2.283 5.002,-5.042m-70.584,31.102c2.008,-0.005 4.016,-0.003 6.023,-0.017c1.625,-0.011 2.567,-0.757 2.609,-2.463c0.043,-1.746 -1.272,-1.896 -2.466,-1.96c-7.773,-0.414 -15.55,-0.754 -23.323,-1.162c-1.727,-0.091 -2.202,0.855 -2.374,2.322c-0.193,1.641 0.81,1.759 2.038,1.938c5.651,0.826 11.363,0.82 17.493,1.341m25.56,-36.448c-1.284,0.499 -0.63,1.561 -0.51,2.283c1.162,7.044 1.228,14.107 0.465,21.182c-0.204,1.89 0.576,2.446 2.321,2.364c2.01,-0.094 2.058,-1.595 2.098,-2.923c0.204,-6.765 0.273,-13.518 -0.774,-20.252c-0.335,-2.153 -1.114,-3.058 -3.599,-2.655m6.872,18.739c-0.091,1.607 -0.175,3.214 -0.274,4.82c-0.071,1.149 0.316,1.878 1.599,1.877c1.043,-0.001 1.88,-0.135 2.042,-1.472c0.898,-7.398 0.798,-14.761 -0.593,-22.097c-0.305,-1.611 -1.263,-2.128 -2.77,-1.864c-1.809,0.316 -1.16,1.66 -1.002,2.666c0.814,5.179 1.277,10.376 0.997,16.071m-76.459,46.773c-0.749,-1.488 -4.441,-3.326 -6.022,-3.039c-0.687,0.124 -0.862,0.554 -1.004,1.152c-1.166,4.916 -0.087,6.678 4.736,7.673c0.55,0.113 1.093,0.273 1.647,0.355c2.038,0.303 2.836,-0.719 2.084,-2.695c-0.4,-1.049 -0.877,-2.069 -1.441,-3.446m-14.692,28.424c0.158,2.041 -0.358,4.137 0.448,6.41c1.529,-0.958 3.32,-1.859 3.435,-3.374c0.311,-4.12 0.107,-8.279 0.107,-12.709c-2.573,1.289 -4.435,2.567 -4.023,5.572c0.163,1.187 0.031,2.415 0.034,4.1m27.907,-25.56c2.159,5.372 3.338,6.141 7.561,4.955c0,-1.842 0.007,-3.676 -0.003,-5.51c-0.004,-0.835 -0.404,-1.47 -1.259,-1.478c-2.228,-0.021 -4.409,-0.92 -6.621,-0.449c-0.501,0.841 0.011,1.477 0.321,2.482m37.796,-111.47c5.517,1.828 10.765,4.315 16.075,6.652c-11.79,-7.38 -49.463,-18.627 -57.638,-17.217c14.177,2.198 27.912,5.463 41.564,10.565m-9.954,81.766c-2.235,0.276 -4.517,-0.778 -6.98,0.117c4.428,2.144 11.844,3.481 16.14,3.047c1.145,-0.116 2.114,-0.287 2.065,-1.745c-0.054,-1.646 -1.298,-1.35 -2.294,-1.364c-2.819,-0.04 -5.639,-0.036 -8.932,-0.055m-58.909,-64.833c-0.061,-2.943 -0.158,-3.008 -2.983,-2.732c-1.355,0.133 -2.722,0.164 -4.084,0.218c-2.331,0.092 -2.65,0.558 -2.122,2.773c0.305,1.282 0.902,1.984 2.302,1.887c1.678,-0.117 3.364,-0.122 5.041,-0.256c0.894,-0.071 1.8,-0.279 1.847,-1.89m87.816,10.359c0.172,-0.944 0.511,-1.893 0.478,-2.83c-0.051,-1.459 -0.707,-2.654 -2.31,-2.97c-1.483,-0.293 -1.942,0.866 -2.404,1.876c-0.35,0.763 -0.96,1.465 -0.82,2.556c0.58,-0.145 1.101,-0.314 1.635,-0.401c0.815,-0.132 1.704,-0.206 1.964,0.83c0.231,0.922 -0.561,1.256 -1.221,1.526c-1.26,0.516 -2.536,0.999 -3.829,1.421c-1.09,0.356 -2.092,0.74 -2.315,2.059c3.756,1.04 6.419,-0.123 8.822,-4.067m-84.655,-33.432c0.159,1.623 -0.378,3.337 0.53,4.911c4.248,-2.579 5.108,-5.373 3.598,-11.419c-3.304,1.31 -4.129,2.522 -4.128,6.508m-3.236,14.514c-0.233,-0.922 -0.977,-0.661 -1.57,-0.635c-2.237,0.098 -4.471,0.262 -6.707,0.346c-1.29,0.049 -2.22,0.339 -1.997,1.934c0.191,1.359 0.665,2.213 2.302,2.038c1.666,-0.178 3.369,-0.268 5.034,-0.131c2.48,0.205 3.399,-0.809 2.938,-3.552m3.232,24.529c0.11,1.204 -0.282,2.518 0.639,3.604c4.125,-2.742 4.935,-5.429 3.485,-11.383c-3.176,1.476 -4.766,3.772 -4.124,7.78m4.101,57.41c-0.577,-0.675 -1.008,-0.087 -1.424,0.202c-2.757,1.911 -3.751,6.922 -2.045,10.571c1.533,-1.048 3.27,-1.936 3.496,-4.008c0.233,-2.142 0.594,-4.308 -0.027,-6.764m-0.119,-161.668c-1.707,0.673 -3.556,1.592 -3.828,3.413c-0.383,2.569 -0.37,5.252 0.194,8.093c2.308,-1.6 4.291,-3.03 3.823,-6.182c-0.245,-1.65 -0.057,-3.364 -0.19,-5.324m0.132,-108.793c-0.131,-0.799 0.391,-1.755 -0.526,-2.382c-3.911,2.563 -4.585,5.032 -3.169,11.415c2.937,-1.381 4.27,-3.641 3.727,-6.924c-0.09,-0.546 -0.028,-1.118 -0.032,-2.108m16.328,281.401c-0.633,-1.947 -1.253,-3.9 -2.566,-5.573c-3.778,3.863 -3.858,6.452 -0.343,10.434c1.547,-1.135 2.262,-2.797 2.909,-4.861m-20.387,-84.784c0.108,2.344 -0.37,4.737 0.384,7.237c5.525,-2.638 3.238,-7.338 3.931,-11.86c-1.966,1.513 -3.583,2.379 -4.315,4.623m1.093,-98.617c-2.291,2.927 -0.658,6.151 -1.11,9.537c4.257,-2.996 5.173,-6.132 3.634,-11.566c-0.772,0.626 -1.507,1.222 -2.524,2.029m2.111,-17.515c1.717,-2.821 0.542,-5.773 0.792,-8.901c-4.291,2.408 -5.118,5.173 -3.639,11.155c1.183,-0.261 1.756,-1.307 2.847,-2.253m-1.181,-20.286c-3.738,2.768 -1.43,6.567 -2.006,10.127c4.302,-2.762 5.158,-5.507 3.659,-11.208c-0.489,0.302 -0.944,0.584 -1.653,1.081m-2.041,-6.368c0.07,1.096 -0.094,2.243 0.648,3.204c3.607,-1.666 4.562,-4.995 3.011,-10.579c-3.042,1.394 -4.143,3.747 -3.659,7.375m1.992,281.393c3.685,-2.766 1.62,-6.501 2.086,-10.127c-3.795,2.227 -5.319,6.708 -3.818,10.093c0.421,0.949 0.899,0.687 1.732,0.034m0.16,-212.467c-3.959,2.472 -1.525,6.159 -2.175,9.528c4.418,-2.12 5.1,-4.169 3.832,-10.521c-0.678,-0.106 -0.917,0.554 -1.657,0.992m1.21,172.252c-1.168,1.504 -3.698,2.013 -3.388,4.594c0.228,1.897 -0.578,3.948 0.668,5.753c0.397,-0.125 0.654,-0.149 0.844,-0.274c1.965,-1.295 2.855,-3.005 2.745,-5.476c-0.173,-3.901 -0.029,-3.908 -0.868,-4.597m11.662,-20.721c2.42,-3.261 0.107,-5.806 -1.134,-8.638c-3.223,3.166 -3.564,5.23 -1.654,8.769c0.817,1.515 1.633,1.66 2.788,-0.131m-14.924,73.331c0.129,1.115 0.586,0.825 1.235,0.355c2.832,-2.051 3.721,-5.812 2.321,-10.003c-2.815,1.236 -4.251,3.239 -3.698,6.443c0.162,0.94 0.062,1.924 0.142,3.204m9.579,-94.052c0.928,-0.345 2.108,-0.171 2.695,-1.241c-2.914,-4.2 -4.181,-4.818 -7.953,-3.915c-0.302,4.022 1.319,5.765 5.259,5.156m-5.256,-70.381c-0.052,-0.858 0.263,-1.786 -0.463,-2.517c-4.032,1.443 -5.409,5.867 -3.137,10.064c3.491,-1.237 3.345,-4.29 3.599,-7.547m-2.988,-223.59c4.3,-2.584 2.149,-6.59 2.617,-10.265c-5.808,2.413 -3.56,7.009 -3.977,11.216c0.619,-0.423 0.873,-0.596 1.36,-0.952m-1.328,84.595c0.062,1.38 0.659,0.645 1.15,0.287c2.881,-2.099 3.776,-5.909 2.319,-9.992c-2.41,1.31 -4.08,2.994 -3.611,6.044c0.168,1.096 0.093,2.23 0.143,3.661m6.582,214.931c-0.47,2.806 1.667,4.536 2.461,6.936c3.019,-2.408 3.471,-4.095 2.073,-6.966c-0.449,-0.923 -0.786,-1.933 -2.108,-2.032c-1.337,-0.099 -1.808,0.798 -2.426,2.062m-2.622,-170.794c-0.114,-1.309 0.226,-2.666 -0.233,-4.016c-3.924,2.105 -5.099,5.896 -3.346,10.372c2.056,-1.462 4.174,-2.864 3.579,-6.356m-1.646,262.588c-4.187,2.349 -1.841,6.133 -2.448,9.56c4.236,-2.222 5.366,-5.734 3.645,-10.504c-0.331,0.262 -0.639,0.506 -1.197,0.944m1.687,12.262c-0.081,-0.428 -0.014,-1.294 -0.606,-0.997c-1.388,0.698 -3.19,1.328 -3.392,3.076c-0.26,2.249 -0.369,4.571 0.156,6.987c2.588,-1.363 4.366,-2.954 3.866,-6.05c-0.139,-0.86 -0.024,-1.761 -0.024,-3.016m-0.019,11.309c-0.113,-0.92 -0.5,-0.76 -1.118,-0.37c-3.026,1.911 -3.961,5.455 -2.548,9.91c2.634,-1.286 4.163,-3.174 3.704,-6.3c-0.139,-0.946 -0.022,-1.93 -0.038,-3.241m-1.107,-355.653c2.086,-2.575 0.784,-5.391 0.98,-8.38c-4.108,2.578 -5.144,5.974 -3.478,10.404c0.976,-0.305 1.51,-1.166 2.498,-2.024m20.051,283.441c0.668,1.205 0.707,2.787 2.035,3.641c3.265,-3.582 3.403,-6.51 0.391,-10.219c-0.724,2.233 -4.022,3.171 -2.426,6.577m-18.947,-274.999c-0.209,-1.606 0.403,-3.298 -0.36,-4.917c-3.853,2.304 -5.049,6.664 -2.929,10.564c1.565,-1.478 3.645,-2.549 3.289,-5.647m16.925,268.737c3.833,-2.712 3.98,-5.762 0.729,-9.553c-3.118,2.9 -3.295,3.518 -1.94,7.185c0.275,0.744 0.66,1.447 1.211,2.368m-19.312,-138.491c-0.812,0.217 -1.614,0.569 -1.654,1.502c-0.097,2.276 -0.319,4.57 0.184,6.89c3.936,-1.952 4.92,-4.194 3.898,-8.662c-0.722,-0.396 -1.365,0.226 -2.428,0.27m2.351,-189.456l0,-6.563c-4.271,2.919 -5.219,6.217 -3.346,10.492c1.233,-1.108 2.965,-1.623 3.346,-3.929m0.068,6.657c-0.063,-0.37 -0.109,-1.15 -0.374,-0.971c-1.47,0.996 -3.51,1.63 -3.7,3.739c-0.199,2.199 -0.168,4.437 0.365,6.771c2.452,-1.621 4.216,-3.393 3.698,-6.523c-0.142,-0.859 -0.004,-1.765 0.011,-3.017m34.384,291.657c1.02,3.07 3.924,2.432 6.202,3.482c-0.784,-5.57 -1.46,-6.673 -6.78,-7.064c-0.519,1.167 0.292,2.161 0.579,3.582m-41.949,-4.184c0.71,-0.841 1.645,-1.523 1.947,-2.671c-5.109,-1.621 -6.774,-1.098 -8.906,2.771c2.722,2.118 4.409,2.153 6.958,-0.1m45.319,-80.916c1.245,-0.426 2.669,-0.347 3.967,-1.407c-3.211,-1.17 -6.423,-1.344 -9.52,-2.013c-1.045,-0.226 -2.183,-0.243 -2.406,1.235c-0.209,1.385 0.568,2.012 1.812,2.392c1.95,0.595 3.826,-0.147 6.147,-0.207m-41.48,214.036c0.496,0.754 0.946,0.238 1.39,-0.06c2.456,-1.652 3.205,-5.503 1.826,-9.571c-2.541,1.202 -4.137,2.898 -3.602,5.961c0.192,1.101 0.21,2.231 0.386,3.67m2.366,10.81c2.527,-2.446 0.833,-5.412 1.363,-8.3c-4.337,1.813 -5.18,4.225 -3.749,9.91c1.034,0.047 1.431,-0.908 2.386,-1.61m-0.892,-419.149c-2.067,1.812 -2.616,5.539 -1.277,8.672c3.705,-1.814 4.561,-4.531 3.077,-10.017c-0.54,0.397 -1.041,0.766 -1.799,1.345m-2.666,252.419c2.079,0.941 3.764,-0.314 5.632,-0.804c-1.703,-4.129 -6.928,-4.699 -10.087,-1.257c1.382,0.635 2.755,1.266 4.455,2.061m-10.075,28.981c0.513,-0.554 1.469,-0.732 1.486,-1.707c-3.452,-2.783 -6.129,-2.427 -9.206,1.204c3.243,2.469 4.708,2.61 7.72,0.503m14.226,141.245c-3.736,2.697 -4.286,4.621 -2.772,9.708c3.665,-1.7 4.68,-4.954 2.772,-9.708m50.733,-138.709c-1.591,-4.501 -3.234,-5.732 -6.882,-5.157c0.627,4.591 1.615,5.732 5.439,6.322c0.747,0.115 1.509,0.333 1.443,-1.164m-20.742,-4.783c0.59,0.202 1.177,0.564 1.78,0.051c-0.319,-4.337 -1.377,-5.843 -4.541,-6.552c-1.466,-0.329 -2.092,0.097 -1.941,1.705c0.256,2.738 1.943,4.022 4.702,4.796m-11.554,-10.489c-0.65,-0.238 -1.212,-0.834 -2.001,-0.513c-0.786,4.519 1.178,7.009 5.69,7.181c0.365,-3.333 -0.518,-5.035 -3.689,-6.668m-20.54,-316.615c-1.923,2.771 -0.746,5.687 -0.788,8.85c3.79,-2.799 4.608,-5.779 3.177,-10.581c-0.886,0.252 -1.491,0.896 -2.389,1.731m35.068,315.107c-2.114,-1.568 -4.594,-1.16 -6.904,-1.576c-0.723,2.951 -0.339,3.421 3.436,4.578c3.302,1.012 3.56,0.821 3.467,-3.002m22.52,19.11c1.584,0.476 3.164,0.982 5.088,0.688c-0.524,-1.873 -1.266,-3.509 -2.388,-4.818c-1.102,-1.287 -3.063,-1.705 -4.4,-1.061c-1.443,0.694 0.11,2.074 0.327,3.15c0.143,0.71 0.48,1.366 1.373,2.042m-58.596,18.002c0.161,0.629 -0.262,1.475 0.642,1.84c3.313,-2.356 4.376,-6.344 2.669,-9.887c-3.742,1.399 -3.383,4.582 -3.312,8.047m-3.874,-64.536c-1.412,0.479 -2.884,0.854 -3.892,2.097c3.482,3.577 4.433,3.869 8.049,2.343c-1.177,-1.627 -0.825,-4.343 -4.156,-4.441m-0.051,15.576c-0.386,-1.735 -3.993,-3.354 -5.164,-2.199c-1.215,1.199 -1.925,2.774 -1.747,4.562c0.082,0.82 0.741,0.827 1.455,0.835c2.348,0.026 3.797,-1.443 5.455,-3.198m-17.809,27.567c-1.735,-0.427 -2.54,1.064 -3.655,1.842c-1.251,0.873 -1.119,1.762 0.235,2.542c2.466,1.422 4.875,0.787 7.025,-2.007c-0.801,-1.156 -2.153,-1.543 -3.604,-2.377m25.406,-43.41c-0.69,-0.205 -1.38,-0.422 -2.186,0.173c1.363,2.606 1.357,6.407 5.795,6.239c1.022,-4.351 0.364,-5.597 -3.609,-6.412m43.851,-43.891c-0.385,0.735 -0.157,1.364 0.596,1.506c3.273,0.62 6.566,1.253 10.263,-0.117c-3.124,-1.502 -6.046,-2.29 -8.927,-3.177c-1.265,-0.39 -1.376,0.764 -1.932,1.787m-49.298,63.008c-2.354,0.363 -2.001,2.24 -1.872,3.731c0.145,1.673 3.001,3.244 5.224,3.128c-0.869,-5.474 -0.869,-5.474 -3.352,-6.859m2.027,22.51c4.478,-2.33 5.103,-4.277 2.054,-8.156c-2.653,2.105 -3.105,4.855 -2.054,8.156m14.139,-23.108c-0.905,0.627 -1.81,1.254 -2.809,1.946c1.021,1.626 2.278,3.316 4.054,2.862c1.591,-0.407 1.752,-2.495 1.762,-4.121c0.005,-0.833 0.198,-1.739 -0.489,-2.666c-0.781,0.606 -1.523,1.182 -2.518,1.978m-3.714,-13.307c-0.455,2.317 -1.38,4.735 1.378,6.355c3.759,-1.846 2.404,-6.522 -1.457,-8.383c0.029,0.578 0.057,1.13 0.079,2.028m0.643,-36.209c1.334,-0.309 2.173,-0.901 1.708,-2.5c-0.231,-0.796 -0.296,-1.537 -1.378,-1.621c-3.439,-0.266 -4.902,1.59 -3.867,5.013c1.154,0.126 2.14,-0.487 3.537,-0.893m68.137,-1.099c-1.593,-1.448 -3.356,-2.598 -5.443,-3.323c-0.489,1.273 0.164,2.203 0.3,3.215c4.575,-0.33 2.032,4.174 3.915,5.666c1.066,-2.063 1.376,-3.234 1.228,-5.559m-4.895,-17.689c-0.251,0.991 -0.501,1.982 -0.752,2.973c2.899,-8.227 2.716,-16.466 0.163,-24.69c1.835,7.038 1.486,14.169 0.589,21.717m-64.261,12.388c2.059,-0.4 2.014,-1.926 1.523,-3.34c-0.585,-1.687 -1.874,-0.507 -2.856,-0.375c-2.042,0.273 -1.741,1.862 -1.516,3.153c0.302,1.731 1.55,0.793 2.849,0.562m19.888,121.99c1.264,-0.05 1.824,-0.54 1.188,-1.836c-0.667,-1.357 -1.306,-2.727 -1.987,-4.153c-3.504,4.528 -3.464,4.972 0.799,5.989m36.591,-41.843c-2.635,1.144 -0.395,2.396 0.02,3.482c0.349,0.914 1.067,2.044 2.345,1.245c1.084,-0.678 1.501,-1.803 1.079,-3.12c-0.498,-1.553 -1.732,-1.683 -3.444,-1.607m-44.583,-91.158c1.696,0.027 0.768,1.921 1.797,2.529c1.593,-0.781 3.132,-1.626 4.391,-3.2c-9.209,-0.626 -8.95,-0.384 -9.031,2.979c0.979,-0.619 1.379,-1.831 2.844,-2.308m-18.731,40.245c-0.981,0.695 -1.959,1.393 -2.942,2.084c-0.68,0.478 -0.953,1.168 -0.635,1.892c0.546,1.241 1.826,0.695 2.774,0.948c0.674,0.18 1.439,0.025 1.455,-0.799c0.028,-1.387 0.583,-2.847 -0.652,-4.125m-38,109.52c0.108,-0.042 0.224,-0.073 0.319,-0.136c0.02,-0.013 -0.024,-0.153 -0.063,-0.219c-2.184,-3.665 -4.779,-7.02 -7.768,-10.056c-1.572,-1.596 -3.095,-3.281 -5.162,-4.306c4.54,4.55 8.958,9.175 12.674,14.717m77.368,-179.721c-6.193,4.926 -9.549,11.646 -11.99,18.944c2.985,-6.939 6.383,-13.611 11.99,-18.944m33.972,185.37c2.979,-2.246 5.97,-4.475 9.097,-6.504c-5.545,2.439 -10.165,6.125 -14.125,10.691c1.584,-1.326 3.168,-2.652 5.028,-4.187m-87.732,-100.522c-0.138,1.217 -0.396,2.451 0.386,3.744c1.408,-1.022 2.661,-1.932 4.335,-3.146c-1.877,-0.404 -2.581,-3.27 -4.721,-0.597m47.393,44.583c0.062,1.807 -0.159,3.648 0.588,5.366l0,-11.322c-0.768,2.144 -0.504,3.836 -0.588,5.956m4.931,-42.47c0.025,-0.455 0.05,-0.91 0.075,-1.365c-1.11,3.726 -1.993,7.472 -1.868,11.383c0.569,-3.226 1.137,-6.451 1.793,-10.019m-36.827,9.226c0.513,0.049 1.148,0.576 1.483,-0.177c0.309,-0.693 -0.056,-1.316 -0.696,-1.602c-1.296,-0.579 -2.578,-0.639 -3.874,0.457c0.897,0.798 1.874,0.921 3.087,1.321m17.383,6.78c-0.484,0.178 -0.997,0.497 -0.467,0.981c0.944,0.863 2.152,1.327 3.374,1.673c0.43,0.122 0.718,-0.235 0.837,-0.656c0.182,-0.646 -0.05,-1.107 -0.686,-1.293c-0.909,-0.266 -1.833,-0.481 -3.057,-0.705m-8.254,4.6c-0.344,1.377 0.183,1.835 2.521,2.149c0.229,-1.104 0.206,-2.147 -0.631,-3.179c-0.565,0.3 -1.108,0.588 -1.89,1.03m-15.387,-0.608c-0.999,-0.345 -2.132,-1.235 -2.773,0.56c1.458,0.95 2.82,0.646 4.24,0.3c-0.395,-0.245 -0.789,-0.49 -1.467,-0.861m-25.687,21.347c-2.449,-0.263 -1.252,1.619 -1.999,2.996c1.202,-0.651 1.926,-0.983 2.586,-1.414c1.104,-0.721 0.371,-1.105 -0.586,-1.582m20.44,-23.248c0.626,-0.667 0.704,-1.362 -0.253,-1.667c-0.912,-0.291 -1.904,-0.311 -2.202,0.965c0.591,0.817 1.334,0.957 2.456,0.702m33.907,-14.618c1.872,0.083 1.197,-1.252 1.445,-2.337c-1.498,0.231 -2.108,0.792 -1.445,2.337Z" style="fill-rule:nonzero;"/>
            <path d="M809.865,297.805c-3.262,-0.628 -5.723,-2.167 -7.473,-4.769c-0.502,-0.747 -0.995,-1.67 -0.107,-2.378c0.995,-0.792 1.581,0.112 2.118,0.829c2.271,3.036 5.033,4.688 8.96,3.33c0.658,-0.228 1.537,-0.268 1.809,0.669c0.262,0.903 -0.39,1.294 -1.122,1.561c-1.289,0.471 -2.588,0.886 -4.185,0.757Z" style="fill-rule:nonzero;"/>
            <path d="M814.985,285.738c-0.216,1.044 -0.276,1.968 -0.657,2.733c-0.721,1.448 -1.917,2.246 -3.536,1.411c-1.213,-0.626 -2.178,-1.79 -1.522,-3.128c0.749,-1.529 1.681,0.255 2.349,0.325c1.64,-0.964 -0.361,-3.741 2.16,-3.828c1.188,-0.041 1.032,1.392 1.206,2.487Z" style="fill-rule:nonzero;"/>
            <path d="M832.282,290.338c-0.683,1.527 -1.58,2.759 -3.16,1.789c-1.52,-0.933 -1.253,-2.465 -0.373,-3.819c0.513,-0.791 1.276,-1.331 2.246,-0.935c1.222,0.498 1.508,1.562 1.287,2.966Z" style="fill-rule:nonzero;"/>
            <path d="M796.883,277.98c-0.19,1.504 -0.847,2.395 -2.244,2.554c-0.78,0.089 -1.431,-0.207 -1.771,-0.929c-0.482,-1.022 -0.295,-2.015 0.322,-2.927c0.526,-0.778 1.26,-1.26 2.217,-1.046c1.11,0.249 1.439,1.133 1.478,2.347Z" style="fill-rule:nonzero;"/>
        </g>
    </g>
    <clipPath id="_clip3">
        <rect x="884.082" y="383.498" width="66.879" height="72.834"/>
    </clipPath>
    <g clip-path="url(#_clip3)">
        <path d="M908.6,450.847c2.982,-3.532 8.589,-9.908 13.88,-15.016c0.047,-0.047 0.108,-0.077 0.173,-0.086c0.065,-0.008 0.13,0.006 0.185,0.04c2.103,1.338 4.205,3.404 5.749,4.567c4.938,3.714 10.172,6.955 15.703,9.725c1.388,0.696 2.767,1.727 4.114,0.257c0.495,-0.544 0.584,-1.147 0.266,-1.809c-2.877,-6.051 -6.354,-12.254 -10.765,-17.26c-1.796,-2.037 -3.713,-3.993 -5.753,-5.868c-0.077,-0.071 -0.138,-0.158 -0.178,-0.254c-0.04,-0.097 -0.059,-0.201 -0.055,-0.306c0.004,-0.105 0.032,-0.207 0.08,-0.3c0.048,-0.093 0.116,-0.175 0.199,-0.239c4.136,-3.243 8.639,-6.473 12.501,-10.11c1.768,-1.663 6.775,-5.653 5.355,-8.213c-2.657,-4.787 -17.961,1.434 -21.928,2.803c-0.88,0.302 -2.052,0.421 -3.518,0.357c-0.149,-0.009 -0.29,-0.067 -0.403,-0.165c-0.721,-0.638 -1.336,-1.371 -1.846,-2.199c-3.999,-6.445 -8.039,-13.353 -12.959,-19.129c-2.103,-2.469 -2.881,-3.962 -5.863,-3.642c-0.785,0.082 -1.133,0.515 -1.044,1.296c0.98,8.612 4.068,16.995 7.306,24.851c0.034,0.083 0.052,0.172 0.051,0.262c-0.001,0.09 -0.02,0.179 -0.057,0.261c-0.036,0.082 -0.089,0.156 -0.155,0.217c-0.066,0.061 -0.143,0.109 -0.228,0.139c-2.275,0.818 -4.436,1.507 -6.482,2.066c-4.475,1.218 -9.597,1.466 -14.402,1.965c-1.502,0.156 -3.71,1.47 -3.958,3.124c-0.376,2.529 3.678,3.646 5.332,4.008c6.294,1.371 12.443,3.231 18.447,5.579c0.042,0.016 0.079,0.04 0.111,0.071c0.032,0.031 0.057,0.068 0.075,0.109c0.017,0.041 0.027,0.085 0.027,0.13c0,0.045 -0.008,0.089 -0.026,0.13c-2.657,6.477 -5.327,12.944 -8.012,19.4c-0.976,2.355 -2.895,7.1 0.449,7.815c2.657,0.568 6.033,-2.68 7.632,-4.576Z" style="fill:none;fill-rule:nonzero;stroke:#ffb8aa;stroke-width:0.92px;"/>
        <path d="M922.521,431.465c0.042,0.04 0.106,0.058 0.188,0.05c0.082,-0.007 0.181,-0.038 0.29,-0.092c0.11,-0.054 0.228,-0.129 0.348,-0.221c0.12,-0.092 0.241,-0.2 0.354,-0.316c0.228,-0.235 0.414,-0.494 0.515,-0.719c0.102,-0.224 0.111,-0.397 0.027,-0.479c-0.042,-0.041 -0.106,-0.058 -0.188,-0.051c-0.082,0.007 -0.181,0.038 -0.29,0.092c-0.11,0.054 -0.228,0.129 -0.348,0.221c-0.12,0.092 -0.241,0.2 -0.354,0.317c-0.228,0.235 -0.414,0.494 -0.515,0.718c-0.102,0.225 -0.111,0.397 -0.026,0.479Z" style="fill:none;fill-rule:nonzero;stroke:#ff7961;stroke-width:0.92px;"/>
        <path d="M922.48,435.83c-5.291,5.108 -10.898,11.484 -13.88,15.016c-1.599,1.896 -4.975,5.144 -7.632,4.576c-3.344,-0.715 -1.425,-5.46 -0.449,-7.815c2.684,-6.456 5.355,-12.922 8.012,-19.4c0.017,-0.041 0.026,-0.085 0.026,-0.13c-0,-0.045 -0.009,-0.089 -0.027,-0.13c-0.017,-0.041 -0.043,-0.078 -0.075,-0.109c-0.032,-0.031 -0.07,-0.055 -0.111,-0.071c-6.004,-2.348 -12.153,-4.208 -18.447,-5.579c-1.654,-0.362 -5.708,-1.48 -5.332,-4.008c0.247,-1.654 2.455,-2.968 3.958,-3.124c4.805,-0.499 9.927,-0.747 14.402,-1.965c2.046,-0.559 4.207,-1.247 6.482,-2.066c0.085,-0.03 0.162,-0.078 0.228,-0.139c0.066,-0.061 0.119,-0.135 0.155,-0.217c0.036,-0.082 0.056,-0.171 0.057,-0.261c0.001,-0.09 -0.016,-0.179 -0.051,-0.262c-3.239,-7.856 -6.326,-16.239 -7.306,-24.851c-0.089,-0.782 0.26,-1.214 1.044,-1.296c2.982,-0.321 3.761,1.173 5.863,3.642c4.92,5.776 8.96,12.684 12.959,19.129c0.51,0.828 1.125,1.56 1.846,2.199c0.113,0.098 0.255,0.156 0.403,0.165c1.466,0.064 2.639,-0.055 3.518,-0.357c3.967,-1.37 19.271,-7.59 21.928,-2.803c1.42,2.561 -3.587,6.551 -5.355,8.213c-3.862,3.637 -8.365,6.867 -12.501,10.11c-0.083,0.064 -0.151,0.146 -0.199,0.239c-0.048,0.093 -0.075,0.196 -0.08,0.3c-0.005,0.105 0.014,0.209 0.055,0.306c0.04,0.097 0.101,0.184 0.178,0.254c2.04,1.875 3.958,3.831 5.753,5.868c4.411,5.007 7.888,11.209 10.765,17.26c0.318,0.663 0.229,1.266 -0.266,1.809c-1.347,1.47 -2.726,0.44 -4.114,-0.257c-5.53,-2.77 -10.765,-6.011 -15.703,-9.725c-1.544,-1.164 -3.646,-3.229 -5.749,-4.567c-0.055,-0.034 -0.12,-0.048 -0.185,-0.04c-0.065,0.008 -0.126,0.038 -0.173,0.086Zm0.042,-4.366c0.042,0.041 0.106,0.058 0.188,0.051c0.082,-0.007 0.181,-0.038 0.29,-0.093c0.11,-0.054 0.228,-0.129 0.348,-0.221c0.12,-0.093 0.241,-0.2 0.354,-0.317c0.228,-0.235 0.414,-0.494 0.515,-0.719c0.102,-0.224 0.111,-0.397 0.026,-0.479c-0.042,-0.04 -0.106,-0.058 -0.188,-0.051c-0.082,0.007 -0.181,0.038 -0.29,0.093c-0.11,0.054 -0.228,0.129 -0.348,0.221c-0.12,0.093 -0.241,0.2 -0.354,0.317c-0.228,0.235 -0.414,0.494 -0.515,0.719c-0.102,0.224 -0.111,0.397 -0.027,0.479Z" style="fill:#ff7157;fill-rule:nonzero;"/>
        <path d="M923.062,430.267c-0.475,0.49 -0.718,1.027 -0.542,1.197c0.176,0.17 0.704,-0.088 1.18,-0.579c0.475,-0.491 0.718,-1.027 0.542,-1.197c-0.176,-0.171 -0.704,0.088 -1.18,0.579Z" style="fill:#ff806b;fill-rule:nonzero;"/>
    </g>
    <clipPath id="_clip4">
        <polygon points="675.451,178.388 742.642,191.146 728.397,266.169 661.206,253.411 675.451,178.388 "/>
    </clipPath>
    <g clip-path="url(#_clip4)">
        <path d="M707.556,186.538c-4.263,3.737 -7.993,7.951 -11.189,12.639c-3.167,4.643 -5.03,8.654 -10.295,9.709c-4.185,0.837 -8.365,1.682 -12.542,2.534c-1.333,0.274 -2.532,0.741 -3.597,1.401c-0.787,0.488 -0.999,1.158 -0.634,2.011c0.819,1.924 1.958,3.639 3.418,5.146c2.862,2.952 5.706,5.924 8.532,8.915c2.746,2.904 4.772,4.805 5.034,8.037c0.567,7.043 1.415,12.658 3.881,19.08c1.903,4.957 6.22,1.813 8.138,-0.752c0.082,-0.11 0.195,-0.197 0.325,-0.25c0.752,-0.314 2.648,-2.858 3.345,-3.606c0.88,-0.948 1.719,-2.172 2.679,-3.177c1.063,-1.116 1.762,-1.879 2.096,-2.288c1.394,-1.717 2.805,-3.439 4.235,-5.166" style="fill:none;fill-rule:nonzero;stroke:#f3bda4;stroke-width:0.84px;"/>
        <path d="M710.982,240.77c1.709,-0.934 3.068,-1.597 4.076,-1.989c5.689,-2.208 11.582,-3.306 17.547,-6.76c2.366,-1.37 3.411,-3.704 1.165,-5.89c-2.49,-2.42 -5.209,-4.545 -8.155,-6.374c-3.538,-2.196 -6.997,-3.998 -7.833,-8.5c-0.037,-0.208 -0.175,-0.272 -0.227,-0.534c-1.536,-7.565 -2.923,-15.217 -5.421,-22.528c-0.733,-2.146 -2.518,-4.326 -4.576,-1.655" style="fill:none;fill-rule:nonzero;stroke:#febba0;stroke-width:0.84px;"/>
        <path d="M710.982,240.77c-2.801,2.067 -5.079,4.632 -6.833,7.692c-0.108,0.185 -0.611,0.431 -0.827,0.689c-3.283,3.929 -5.067,5.858 -7.691,8.046c-0.106,0.088 -0.234,0.144 -0.368,0.161c-1.369,0.171 -3.2,1.152 -3.896,-0.736c-1.663,-4.467 -2.98,-9.18 -3.49,-13.966c-0.177,-1.66 -0.355,-3.319 -0.532,-4.978c-0.151,-1.408 -0.62,-3.731 -1.109,-4.661c-1.235,-2.357 -4.512,-5.187 -5.859,-6.66c-1.794,-1.964 -3.585,-3.928 -5.373,-5.893c-0.491,-0.542 -6.589,-5.787 -4.31,-6.789c0.119,-0.053 0.221,-0.14 0.295,-0.251c0.7,-1.033 5.174,-2.037 6.149,-2.266c1.614,-0.381 4.022,-0.488 6.022,-1.013c2.329,-0.613 4.48,-0.563 6.773,-1.772c3.769,-1.992 5.878,-6.934 8.326,-10.181c2.287,-3.031 4.711,-5.949 7.274,-8.753c0.911,-0.997 1.695,-1.438 2.024,-2.9" style="fill:none;fill-rule:nonzero;stroke:#f37a4a;stroke-width:0.84px;"/>
        <path d="M707.772,202.699c0.095,-0.003 0.186,-0.094 0.268,-0.268c0.082,-0.174 0.153,-0.427 0.21,-0.745c0.057,-0.318 0.098,-0.695 0.121,-1.108c0.023,-0.414 0.027,-0.857 0.013,-1.303c-0.029,-0.902 -0.133,-1.765 -0.289,-2.398c-0.156,-0.633 -0.351,-0.986 -0.542,-0.98c-0.095,0.003 -0.186,0.094 -0.268,0.268c-0.082,0.174 -0.153,0.427 -0.21,0.745c-0.057,0.318 -0.098,0.695 -0.121,1.108c-0.023,0.414 -0.027,0.857 -0.013,1.303c0.029,0.902 0.133,1.765 0.289,2.398c0.156,0.633 0.351,0.986 0.542,0.98Z" style="fill:none;fill-rule:nonzero;stroke:#fdb08a;stroke-width:0.84px;"/>
        <path d="M715.801,231.969c0.095,0.06 0.219,0.072 0.363,0.037c0.144,-0.035 0.307,-0.116 0.477,-0.24c0.171,-0.124 0.347,-0.288 0.519,-0.482c0.172,-0.194 0.335,-0.415 0.482,-0.65c0.296,-0.474 0.503,-0.976 0.576,-1.396c0.073,-0.42 0.005,-0.724 -0.187,-0.844c-0.095,-0.059 -0.219,-0.072 -0.363,-0.037c-0.144,0.035 -0.307,0.117 -0.477,0.24c-0.171,0.124 -0.347,0.288 -0.519,0.482c-0.172,0.194 -0.335,0.415 -0.482,0.65c-0.296,0.474 -0.503,0.976 -0.576,1.396c-0.073,0.42 -0.005,0.724 0.187,0.844Z" style="fill:none;fill-rule:nonzero;stroke:#fdb08a;stroke-width:0.84px;"/>
        <path d="M701.351,242.396c0.115,-0.159 0.162,-0.357 0.131,-0.55c-0.031,-0.193 -0.137,-0.367 -0.296,-0.482l-0.034,-0.025c-0.159,-0.115 -0.356,-0.162 -0.55,-0.131c-0.193,0.031 -0.367,0.137 -0.482,0.295l-3.36,4.633c-0.115,0.158 -0.162,0.356 -0.131,0.55c0.031,0.193 0.137,0.366 0.296,0.482l0.034,0.025c0.159,0.115 0.356,0.162 0.55,0.131c0.193,-0.031 0.367,-0.137 0.482,-0.296l3.36,-4.633Z" style="fill:none;fill-rule:nonzero;stroke:#fdb08a;stroke-width:0.84px;"/>
        <path d="M710.982,240.769c-2.801,2.068 -5.079,4.632 -6.833,7.692c-0.108,0.185 -0.611,0.431 -0.827,0.689c-3.283,3.929 -5.067,5.858 -7.691,8.046c-0.106,0.089 -0.234,0.145 -0.368,0.161c-1.369,0.171 -3.2,1.152 -3.896,-0.736c-1.663,-4.467 -2.98,-9.18 -3.49,-13.966c-0.178,-1.659 -0.355,-3.319 -0.532,-4.978c-0.151,-1.408 -0.62,-3.731 -1.109,-4.661c-1.235,-2.357 -4.512,-5.187 -5.859,-6.66c-1.794,-1.964 -3.585,-3.928 -5.373,-5.893c-0.491,-0.542 -6.589,-5.787 -4.31,-6.789c0.119,-0.053 0.221,-0.14 0.295,-0.251c0.7,-1.033 5.174,-2.037 6.149,-2.266c1.614,-0.381 4.022,-0.488 6.022,-1.013c2.329,-0.613 4.48,-0.563 6.773,-1.772c3.769,-1.992 5.878,-6.934 8.326,-10.181c2.287,-3.031 4.711,-5.949 7.274,-8.753c0.911,-0.997 1.695,-1.438 2.024,-2.9c2.058,-2.671 3.843,-0.492 4.576,1.655c2.498,7.312 3.885,14.964 5.421,22.528c0.053,0.262 0.19,0.326 0.227,0.534c0.836,4.502 4.295,6.304 7.833,8.5c2.947,1.829 5.666,3.954 8.155,6.374c2.246,2.186 1.2,4.52 -1.165,5.89c-5.964,3.454 -11.857,4.552 -17.547,6.76c-1.008,0.392 -2.367,1.056 -4.076,1.989Zm-3.209,-38.07c0.095,-0.003 0.186,-0.094 0.268,-0.268c0.082,-0.174 0.153,-0.427 0.21,-0.745c0.057,-0.318 0.098,-0.695 0.121,-1.108c0.023,-0.414 0.027,-0.857 0.013,-1.303c-0.029,-0.902 -0.133,-1.765 -0.289,-2.398c-0.156,-0.633 -0.351,-0.986 -0.542,-0.98c-0.095,0.003 -0.186,0.094 -0.268,0.268c-0.082,0.174 -0.153,0.427 -0.21,0.745c-0.057,0.318 -0.098,0.695 -0.121,1.108c-0.023,0.414 -0.027,0.857 -0.013,1.303c0.029,0.902 0.133,1.765 0.289,2.398c0.156,0.633 0.351,0.986 0.542,0.98Zm8.03,29.27c0.095,0.06 0.219,0.072 0.363,0.037c0.144,-0.035 0.306,-0.117 0.477,-0.24c0.171,-0.124 0.347,-0.288 0.519,-0.482c0.172,-0.194 0.335,-0.415 0.482,-0.65c0.296,-0.474 0.503,-0.976 0.576,-1.396c0.073,-0.42 0.005,-0.724 -0.187,-0.844c-0.095,-0.06 -0.219,-0.072 -0.363,-0.037c-0.144,0.035 -0.307,0.117 -0.477,0.24c-0.171,0.124 -0.347,0.288 -0.519,0.482c-0.172,0.194 -0.335,0.415 -0.482,0.649c-0.295,0.474 -0.502,0.976 -0.575,1.396c-0.073,0.42 -0.005,0.724 0.187,0.844Zm-14.452,10.427c0.115,-0.158 0.162,-0.356 0.131,-0.549c-0.031,-0.194 -0.137,-0.367 -0.296,-0.482l-0.034,-0.024c-0.159,-0.115 -0.356,-0.162 -0.55,-0.132c-0.193,0.031 -0.367,0.137 -0.482,0.296l-3.36,4.633c-0.115,0.158 -0.162,0.356 -0.131,0.549c0.031,0.193 0.137,0.367 0.296,0.482l0.034,0.024c0.159,0.115 0.356,0.162 0.55,0.132c0.193,-0.031 0.367,-0.137 0.482,-0.296l3.36,-4.633Z" style="fill:#fe7845;fill-rule:nonzero;"/>
        <path d="M707.558,186.539c-0.329,1.462 -1.113,1.903 -2.024,2.9c-2.563,2.805 -4.987,5.723 -7.274,8.753c-2.449,3.246 -4.557,8.189 -8.326,10.181c-2.292,1.209 -4.444,1.159 -6.772,1.772c-2,0.526 -4.408,0.632 -6.022,1.013c-0.975,0.229 -5.449,1.233 -6.149,2.266c-0.074,0.111 -0.177,0.199 -0.295,0.251c-2.279,1.002 3.819,6.247 4.31,6.789c1.788,1.965 3.579,3.93 5.373,5.893c1.347,1.473 4.624,4.303 5.859,6.66c0.49,0.93 0.958,3.253 1.109,4.661c0.178,1.659 0.355,3.319 0.532,4.978c0.509,4.786 1.826,9.499 3.49,13.966c0.696,1.888 2.527,0.907 3.896,0.736c0.134,-0.016 0.262,-0.072 0.368,-0.161c2.623,-2.188 4.408,-4.117 7.691,-8.046c0.216,-0.258 0.719,-0.504 0.827,-0.689c1.754,-3.061 4.032,-5.625 6.833,-7.692c-1.43,1.727 -2.842,3.449 -4.235,5.166c-0.334,0.409 -1.033,1.172 -2.096,2.288c-0.96,1.005 -1.799,2.23 -2.679,3.177c-0.697,0.747 -2.594,3.291 -3.345,3.606c-0.13,0.053 -0.243,0.14 -0.325,0.25c-1.918,2.566 -6.235,5.709 -8.138,0.752c-2.466,-6.422 -3.314,-12.036 -3.881,-19.08c-0.262,-3.231 -2.288,-5.132 -5.034,-8.037c-2.826,-2.991 -5.67,-5.962 -8.532,-8.915c-1.459,-1.507 -2.598,-3.222 -3.417,-5.146c-0.365,-0.852 -0.154,-1.523 0.634,-2.011c1.065,-0.66 2.264,-1.128 3.597,-1.401c4.176,-0.853 8.357,-1.697 12.542,-2.534c5.265,-1.054 7.129,-5.065 10.295,-9.709c3.197,-4.689 6.926,-8.902 11.189,-12.639Z" style="fill:#e87c4e;fill-rule:nonzero;"/>
        <path d="M706.941,199.321c0.061,1.878 0.433,3.391 0.831,3.378c0.398,-0.013 0.672,-1.546 0.612,-3.424c-0.061,-1.878 -0.433,-3.391 -0.831,-3.378c-0.398,0.013 -0.672,1.546 -0.612,3.424Z" style="fill:#fbe8ce;fill-rule:nonzero;"/>
        <path d="M716.19,229.729c-0.616,0.987 -0.79,1.99 -0.389,2.24c0.401,0.25 1.225,-0.347 1.841,-1.334c0.615,-0.987 0.789,-1.99 0.388,-2.24c-0.401,-0.25 -1.225,0.347 -1.841,1.334Z" style="fill:#fbe8ce;fill-rule:nonzero;"/>
        <path d="M701.186,241.365l-0.034,-0.025c-0.33,-0.239 -0.792,-0.166 -1.031,0.164l-3.36,4.633c-0.239,0.33 -0.166,0.792 0.164,1.031l0.034,0.024c0.33,0.239 0.792,0.166 1.031,-0.164l3.36,-4.633c0.239,-0.33 0.166,-0.792 -0.164,-1.031Z" style="fill:#fbe8ce;fill-rule:nonzero;"/>
    </g>
    <g>
        <path d="M28.773,58.262c-4.834,0 -9.162,-1.099 -12.984,-3.298c-3.821,-2.199 -6.835,-5.386 -9.041,-9.559c-2.206,-4.174 -3.309,-9.214 -3.309,-15.121c0,-5.944 1.113,-11.007 3.339,-15.187c2.226,-4.181 5.253,-7.37 9.08,-9.568c3.828,-2.198 8.133,-3.297 12.915,-3.297c3.101,0 5.991,0.433 8.668,1.298c2.678,0.865 5.053,2.128 7.125,3.791c2.072,1.662 3.771,3.694 5.097,6.095c1.326,2.401 2.194,5.136 2.603,8.208l-11.308,0c-0.259,-1.498 -0.733,-2.829 -1.423,-3.995c-0.689,-1.165 -1.557,-2.157 -2.602,-2.975c-1.045,-0.819 -2.237,-1.439 -3.576,-1.861c-1.339,-0.422 -2.787,-0.633 -4.345,-0.633c-2.837,0 -5.326,0.708 -7.468,2.125c-2.142,1.416 -3.805,3.472 -4.987,6.168c-1.182,2.696 -1.773,5.974 -1.773,9.833c0,3.927 0.6,7.235 1.801,9.925c1.201,2.689 2.866,4.716 4.995,6.081c2.129,1.365 4.593,2.047 7.392,2.047c1.558,0 3.004,-0.214 4.336,-0.641c1.332,-0.428 2.528,-1.048 3.586,-1.861c1.059,-0.813 1.939,-1.805 2.642,-2.976c0.703,-1.171 1.19,-2.5 1.462,-3.986l11.308,0c-0.306,2.533 -1.059,4.957 -2.26,7.273c-1.2,2.316 -2.807,4.387 -4.82,6.214c-2.012,1.826 -4.397,3.267 -7.154,4.322c-2.757,1.055 -5.857,1.583 -9.299,1.583Z" style="fill-rule:nonzero;"/>
        <path d="M71.142,33.825l0,23.705l-10.982,0l0,-54.565l10.784,0l0,23.844l-0.898,0c1.074,-3.415 2.705,-6.058 4.893,-7.928c2.188,-1.87 5.011,-2.806 8.467,-2.806c2.838,0 5.313,0.617 7.427,1.851c2.114,1.234 3.754,3.002 4.92,5.305c1.166,2.303 1.749,5.055 1.749,8.259l0,26.04l-10.999,0l0,-24.126c0,-2.543 -0.656,-4.538 -1.968,-5.984c-1.311,-1.446 -3.125,-2.169 -5.441,-2.169c-1.545,0 -2.917,0.338 -4.117,1.015c-1.2,0.676 -2.139,1.651 -2.819,2.925c-0.679,1.273 -1.019,2.818 -1.019,4.634Z" style="fill-rule:nonzero;"/>
        <path d="M137.732,23.355l0,-6.767l2.742,0c0.804,0 1.206,-0.402 1.206,-1.206l0,-7.876l8.628,0l0,8.24c0,2.589 -0.73,4.505 -2.191,5.747c-1.46,1.242 -3.385,1.863 -5.775,1.863l-4.61,0Zm-16.783,34.688c-2.825,0 -5.297,-0.617 -7.418,-1.851c-2.12,-1.234 -3.763,-3.005 -4.93,-5.313c-1.166,-2.308 -1.749,-5.058 -1.749,-8.25l0,-26.04l10.982,0l0,24.126c0,2.543 0.659,4.538 1.976,5.984c1.318,1.446 3.134,2.169 5.45,2.169c1.558,0 2.93,-0.338 4.118,-1.015c1.188,-0.677 2.121,-1.658 2.8,-2.943c0.679,-1.286 1.019,-2.824 1.019,-4.617l0,-23.705l10.999,0l0,40.942l-10.387,0l-0.158,-10.221l0.641,0c-1.085,3.437 -2.727,6.086 -4.927,7.945c-2.2,1.859 -5.005,2.788 -8.417,2.788Z" style="fill-rule:nonzero;"/>
        <path d="M170.459,21.82l0,-5.745c0.837,0 1.765,0.024 2.784,0.073c1.019,0.049 2.064,0.11 3.134,0.183c1.07,0.073 2.098,0.134 3.083,0.183c0.985,0.049 1.851,0.073 2.597,0.073c1.226,0 1.838,-0.56 1.838,-1.68l0,-7.402l8.763,0l0,6.5c0,2.46 -0.77,4.377 -2.309,5.752c-1.54,1.375 -3.702,2.062 -6.487,2.062l-13.403,0Zm0.054,36.51c-4.107,0 -7.66,-0.882 -10.66,-2.646c-2.999,-1.765 -5.31,-4.23 -6.932,-7.397c-1.622,-3.167 -2.433,-6.851 -2.433,-11.05c0,-4.233 0.811,-7.936 2.433,-11.109c1.622,-3.173 3.933,-5.641 6.932,-7.405c3,-1.765 6.553,-2.647 10.66,-2.647c4.118,0 7.673,0.882 10.665,2.647c2.992,1.764 5.299,4.233 6.921,7.405c1.622,3.173 2.433,6.876 2.433,11.109c0,4.199 -0.811,7.882 -2.433,11.05c-1.622,3.167 -3.929,5.633 -6.921,7.397c-2.992,1.764 -6.547,2.646 -10.665,2.646Zm0,-8.645c1.955,0 3.589,-0.543 4.903,-1.63c1.314,-1.086 2.299,-2.572 2.956,-4.457c0.657,-1.885 0.985,-4.019 0.985,-6.401c0,-2.407 -0.328,-4.548 -0.985,-6.425c-0.657,-1.877 -1.642,-3.355 -2.956,-4.433c-1.314,-1.079 -2.949,-1.618 -4.903,-1.618c-1.957,0 -3.59,0.539 -4.899,1.618c-1.31,1.079 -2.293,2.554 -2.95,4.425c-0.657,1.871 -0.985,4.016 -0.985,6.434c0,2.382 0.328,4.516 0.985,6.401c0.657,1.885 1.64,3.371 2.95,4.457c1.31,1.086 2.943,1.63 4.899,1.63Z" style="fill-rule:nonzero;"/>
        <path d="M209.057,33.825l0,23.705l-10.982,0l0,-40.942l10.369,0l0.175,10.221l-0.659,0c1.074,-3.415 2.705,-6.058 4.893,-7.928c2.188,-1.87 5.011,-2.806 8.467,-2.806c2.838,0 5.311,0.617 7.419,1.851c2.108,1.234 3.746,3.002 4.912,5.305c1.167,2.303 1.75,5.055 1.75,8.259l0,26.04l-10.982,0l0,-24.126c0,-2.543 -0.656,-4.538 -1.968,-5.984c-1.311,-1.446 -3.125,-2.169 -5.441,-2.169c-1.545,0 -2.917,0.338 -4.117,1.015c-1.2,0.676 -2.139,1.651 -2.819,2.925c-0.679,1.273 -1.019,2.818 -1.019,4.634Z" style="fill-rule:nonzero;"/>
        <path d="M262.958,73.717c-3.41,0 -6.381,-0.431 -8.913,-1.292c-2.533,-0.861 -4.594,-2.049 -6.184,-3.563c-1.59,-1.513 -2.687,-3.245 -3.291,-5.196l9.44,-2.612c0.349,0.755 0.88,1.493 1.595,2.214c0.715,0.722 1.67,1.313 2.863,1.773c1.194,0.46 2.677,0.691 4.45,0.691c2.797,0 4.997,-0.643 6.602,-1.929c1.604,-1.286 2.407,-3.283 2.407,-5.993l0,-7.531l-0.86,0c-0.49,1.098 -1.199,2.158 -2.127,3.179c-0.928,1.021 -2.143,1.858 -3.646,2.511c-1.502,0.653 -3.36,0.98 -5.575,0.98c-3.074,0 -5.871,-0.722 -8.391,-2.167c-2.52,-1.445 -4.527,-3.644 -6.021,-6.596c-1.494,-2.952 -2.241,-6.683 -2.241,-11.193c0,-4.619 0.761,-8.478 2.283,-11.577c1.522,-3.1 3.547,-5.432 6.072,-6.996c2.526,-1.564 5.301,-2.346 8.325,-2.346c2.307,0 4.238,0.387 5.793,1.162c1.555,0.774 2.816,1.736 3.782,2.886c0.967,1.149 1.702,2.268 2.205,3.357l0.445,0l0,-6.892l10.819,0l0,40.6c0,3.687 -0.85,6.756 -2.549,9.207c-1.699,2.452 -4.039,4.285 -7.02,5.499c-2.981,1.215 -6.402,1.822 -10.263,1.822Zm0.193,-25.117c1.884,0 3.479,-0.462 4.786,-1.386c1.307,-0.924 2.304,-2.26 2.991,-4.007c0.688,-1.748 1.032,-3.84 1.032,-6.278c0,-2.431 -0.341,-4.546 -1.023,-6.347c-0.682,-1.801 -1.677,-3.201 -2.983,-4.202c-1.307,-1.001 -2.908,-1.501 -4.803,-1.501c-1.916,0 -3.529,0.517 -4.841,1.551c-1.311,1.034 -2.302,2.454 -2.971,4.261c-0.669,1.806 -1.003,3.885 -1.003,6.238c0,2.372 0.337,4.435 1.012,6.188c0.675,1.753 1.668,3.105 2.979,4.057c1.311,0.951 2.919,1.427 4.824,1.427Z" style="fill-rule:nonzero;"/>
        <path d="M330.261,16.588l0,8.368l-24.292,0l0,-8.368l24.292,0Zm-18.654,-9.741l10.982,0l0,38.699c0,1.304 0.29,2.265 0.87,2.883c0.58,0.618 1.532,0.927 2.856,0.927c0.428,0 1.019,-0.052 1.771,-0.156c0.753,-0.105 1.325,-0.206 1.717,-0.303l1.572,8.236c-1.224,0.363 -2.438,0.615 -3.641,0.757c-1.203,0.142 -2.357,0.213 -3.461,0.213c-4.107,0 -7.245,-0.996 -9.414,-2.989c-2.169,-1.993 -3.253,-4.86 -3.253,-8.6l0,-39.666Z" style="fill-rule:nonzero;"/>
        <path d="M337.382,57.53l0,-40.942l10.644,0l0,7.13l0.439,0c0.743,-2.524 2,-4.434 3.77,-5.731c1.77,-1.297 3.802,-1.945 6.099,-1.945c0.568,0 1.177,0.032 1.829,0.096c0.652,0.064 1.225,0.154 1.722,0.271l0,9.813c-0.486,-0.167 -1.195,-0.303 -2.128,-0.407c-0.933,-0.105 -1.805,-0.157 -2.618,-0.157c-1.676,0 -3.181,0.363 -4.514,1.088c-1.333,0.726 -2.376,1.73 -3.13,3.013c-0.753,1.283 -1.13,2.773 -1.13,4.471l0,23.301l-10.982,0Z" style="fill-rule:nonzero;"/>
        <path d="M368.253,57.53l0,-40.942l10.982,0l0,40.942l-10.982,0Zm1.704,-46.131l-7.562,-11.399l10.189,0l5.087,11.399l-7.714,0Z" style="fill-rule:nonzero;"/>
        <path d="M399.56,33.825l0,23.705l-10.982,0l0,-40.942l10.369,0l0.175,10.221l-0.659,0c1.074,-3.415 2.705,-6.058 4.893,-7.928c2.188,-1.87 5.011,-2.806 8.467,-2.806c2.838,0 5.311,0.617 7.419,1.851c2.108,1.234 3.746,3.002 4.912,5.305c1.167,2.303 1.75,5.055 1.75,8.259l0,26.04l-10.982,0l0,-24.126c0,-2.543 -0.656,-4.538 -1.968,-5.984c-1.311,-1.446 -3.125,-2.169 -5.441,-2.169c-1.545,0 -2.917,0.338 -4.117,1.015c-1.2,0.676 -2.139,1.651 -2.819,2.925c-0.679,1.273 -1.019,2.818 -1.019,4.634Z" style="fill-rule:nonzero;"/>
        <path d="M446.251,33.825l0,23.705l-10.982,0l0,-54.565l10.784,0l0,23.844l-0.898,0c1.074,-3.415 2.705,-6.058 4.893,-7.928c2.188,-1.87 5.011,-2.806 8.467,-2.806c2.838,0 5.313,0.617 7.427,1.851c2.114,1.234 3.754,3.002 4.92,5.305c1.166,2.303 1.749,5.055 1.749,8.259l0,26.04l-10.999,0l0,-24.126c0,-2.543 -0.656,-4.538 -1.968,-5.984c-1.311,-1.446 -3.125,-2.169 -5.441,-2.169c-1.545,0 -2.917,0.338 -4.117,1.015c-1.2,0.676 -2.139,1.651 -2.819,2.925c-0.679,1.273 -1.019,2.818 -1.019,4.634Z" style="fill-rule:nonzero;"/>
    </g>
    <g>
        <path d="M2.758,102.808l0,-9.277l44.558,0l0,9.277l-16.667,0l0,45.288l-11.19,0l0,-45.288l-16.701,0Z" style="fill-rule:nonzero;"/>
        <path d="M63.307,148.609c-2.825,0 -5.297,-0.617 -7.418,-1.851c-2.12,-1.234 -3.763,-3.005 -4.93,-5.313c-1.166,-2.308 -1.749,-5.058 -1.749,-8.25l0,-26.04l10.982,0l0,24.126c0,2.543 0.659,4.538 1.976,5.984c1.318,1.446 3.134,2.169 5.45,2.169c1.558,0 2.93,-0.338 4.118,-1.015c1.188,-0.677 2.121,-1.658 2.8,-2.943c0.679,-1.286 1.019,-2.824 1.019,-4.617l0,-23.705l10.999,0l0,40.942l-10.387,0l-0.158,-10.221l0.641,0c-1.085,3.437 -2.727,6.086 -4.927,7.945c-2.2,1.859 -5.005,2.788 -8.417,2.788Z" style="fill-rule:nonzero;"/>
        <path d="M95.618,162.592l2.515,-8.283l1.348,0.361c1.488,0.381 2.801,0.486 3.939,0.314c1.138,-0.172 2.055,-0.636 2.749,-1.392c0.694,-0.756 1.114,-1.814 1.259,-3.174l0.322,-2.2l-15.38,-41.063l11.664,0l6.876,21.254c0.849,2.684 1.534,5.367 2.057,8.049c0.523,2.681 1.119,5.484 1.787,8.407l-2.555,0c0.668,-2.924 1.329,-5.735 1.983,-8.435c0.654,-2.7 1.419,-5.374 2.296,-8.021l7.207,-21.254l11.528,0l-17.388,45.773c-0.83,2.199 -1.894,4.106 -3.192,5.721c-1.298,1.615 -2.911,2.86 -4.838,3.735c-1.927,0.876 -4.263,1.314 -7.01,1.314c-1.448,0 -2.811,-0.105 -4.087,-0.316c-1.276,-0.21 -2.303,-0.473 -3.08,-0.79Z" style="fill-rule:nonzero;"/>
        <path d="M158.218,148.896c-4.179,0 -7.783,-0.856 -10.81,-2.567c-3.027,-1.712 -5.351,-4.142 -6.975,-7.292c-1.623,-3.149 -2.434,-6.883 -2.434,-11.201c0,-4.213 0.806,-7.908 2.419,-11.086c1.613,-3.178 3.894,-5.658 6.842,-7.438c2.949,-1.78 6.418,-2.67 10.406,-2.67c2.674,0 5.172,0.426 7.495,1.278c2.323,0.852 4.361,2.137 6.115,3.854c1.754,1.718 3.124,3.876 4.11,6.476c0.986,2.599 1.479,5.652 1.479,9.159l0,3.083l-34.357,0l0,-6.911l29.006,0l-5.133,1.853c0,-2.132 -0.326,-3.984 -0.977,-5.557c-0.651,-1.574 -1.616,-2.794 -2.894,-3.662c-1.278,-0.868 -2.866,-1.302 -4.765,-1.302c-1.899,0 -3.51,0.439 -4.833,1.318c-1.323,0.879 -2.329,2.071 -3.02,3.577c-0.69,1.506 -1.036,3.218 -1.036,5.136l0,4.866c0,2.368 0.396,4.358 1.189,5.969c0.793,1.611 1.908,2.821 3.345,3.63c1.437,0.809 3.105,1.214 5.002,1.214c1.282,0 2.447,-0.182 3.494,-0.547c1.048,-0.365 1.95,-0.905 2.704,-1.621c0.755,-0.716 1.329,-1.599 1.723,-2.648l9.932,1.837c-0.661,2.262 -1.808,4.236 -3.441,5.924c-1.632,1.688 -3.678,2.997 -6.136,3.929c-2.458,0.932 -5.275,1.397 -8.451,1.397Zm-5.979,-47.234l-9.547,0l0,-0.271l10.564,-10.826l8.418,0l10.581,10.826l0,0.271l-9.581,0l-5.2,-6.231l-5.234,6.231Z" style="fill-rule:nonzero;"/>
        <path d="M195.36,124.391l0,23.705l-10.982,0l0,-40.942l10.369,0l0.175,10.221l-0.659,0c1.074,-3.415 2.705,-6.058 4.893,-7.928c2.188,-1.87 5.011,-2.806 8.467,-2.806c2.838,0 5.311,0.617 7.419,1.851c2.108,1.234 3.746,3.002 4.912,5.305c1.167,2.303 1.75,5.055 1.75,8.259l0,26.04l-10.982,0l0,-24.126c0,-2.543 -0.656,-4.538 -1.968,-5.984c-1.311,-1.446 -3.125,-2.169 -5.441,-2.169c-1.545,0 -2.917,0.338 -4.117,1.015c-1.2,0.676 -2.139,1.651 -2.819,2.925c-0.679,1.273 -1.019,2.818 -1.019,4.634Z" style="fill-rule:nonzero;"/>
        <path d="M269.177,107.154l0,8.368l-24.292,0l0,-8.368l24.292,0Zm-18.654,-9.741l10.982,0l0,38.699c0,1.304 0.29,2.265 0.87,2.883c0.58,0.618 1.532,0.927 2.856,0.927c0.428,0 1.019,-0.052 1.771,-0.156c0.753,-0.105 1.325,-0.206 1.717,-0.303l1.572,8.236c-1.224,0.363 -2.438,0.615 -3.641,0.757c-1.203,0.142 -2.357,0.213 -3.461,0.213c-4.107,0 -7.245,-0.996 -9.414,-2.989c-2.169,-1.993 -3.253,-4.86 -3.253,-8.6l0,-39.666Z" style="fill-rule:nonzero;"/>
        <path d="M276.298,148.096l0,-40.942l10.644,0l0,7.13l0.439,0c0.743,-2.524 2,-4.434 3.77,-5.731c1.77,-1.297 3.802,-1.945 6.099,-1.945c0.568,0 1.177,0.032 1.829,0.096c0.652,0.064 1.225,0.154 1.722,0.271l0,9.813c-0.486,-0.167 -1.195,-0.303 -2.128,-0.407c-0.933,-0.105 -1.805,-0.157 -2.618,-0.157c-1.676,0 -3.181,0.363 -4.514,1.088c-1.333,0.726 -2.376,1.73 -3.13,3.013c-0.753,1.283 -1.13,2.773 -1.13,4.471l0,23.301l-10.982,0Z" style="fill-rule:nonzero;"/>
        <path d="M320.936,148.609c-2.825,0 -5.297,-0.617 -7.418,-1.851c-2.12,-1.234 -3.763,-3.005 -4.93,-5.313c-1.166,-2.308 -1.749,-5.058 -1.749,-8.25l0,-26.04l10.982,0l0,24.126c0,2.543 0.659,4.538 1.976,5.984c1.318,1.446 3.134,2.169 5.45,2.169c1.558,0 2.93,-0.338 4.118,-1.015c1.188,-0.677 2.121,-1.658 2.8,-2.943c0.679,-1.286 1.019,-2.824 1.019,-4.617l0,-23.705l10.999,0l0,40.942l-10.387,0l-0.158,-10.221l0.641,0c-1.085,3.437 -2.727,6.086 -4.927,7.945c-2.2,1.859 -5.005,2.788 -8.417,2.788Z" style="fill-rule:nonzero;"/>
        <path d="M353.248,162.592l2.515,-8.283l1.348,0.361c1.488,0.381 2.801,0.486 3.939,0.314c1.138,-0.172 2.055,-0.636 2.749,-1.392c0.694,-0.756 1.114,-1.814 1.259,-3.174l0.322,-2.2l-15.38,-41.063l11.664,0l6.876,21.254c0.849,2.684 1.534,5.367 2.057,8.049c0.523,2.681 1.119,5.484 1.787,8.407l-2.555,0c0.668,-2.924 1.329,-5.735 1.983,-8.435c0.654,-2.7 1.419,-5.374 2.296,-8.021l7.207,-21.254l11.528,0l-17.388,45.773c-0.83,2.199 -1.894,4.106 -3.192,5.721c-1.298,1.615 -2.911,2.86 -4.838,3.735c-1.927,0.876 -4.263,1.314 -7.01,1.314c-1.448,0 -2.811,-0.105 -4.087,-0.316c-1.276,-0.21 -2.303,-0.473 -3.08,-0.79Z" style="fill-rule:nonzero;"/>
        <path d="M415.847,148.896c-4.179,0 -7.783,-0.856 -10.81,-2.567c-3.027,-1.712 -5.351,-4.142 -6.975,-7.292c-1.623,-3.149 -2.434,-6.883 -2.434,-11.201c0,-4.213 0.806,-7.908 2.419,-11.086c1.613,-3.178 3.894,-5.658 6.842,-7.438c2.949,-1.78 6.418,-2.67 10.406,-2.67c2.674,0 5.172,0.426 7.495,1.278c2.323,0.852 4.361,2.137 6.115,3.854c1.754,1.718 3.124,3.876 4.11,6.476c0.986,2.599 1.479,5.652 1.479,9.159l0,3.083l-34.357,0l0,-6.911l29.006,0l-5.133,1.853c0,-2.132 -0.326,-3.984 -0.977,-5.557c-0.651,-1.574 -1.616,-2.794 -2.894,-3.662c-1.278,-0.868 -2.866,-1.302 -4.765,-1.302c-1.899,0 -3.51,0.439 -4.833,1.318c-1.323,0.879 -2.329,2.071 -3.02,3.577c-0.69,1.506 -1.036,3.218 -1.036,5.136l0,4.866c0,2.368 0.396,4.358 1.189,5.969c0.793,1.611 1.908,2.821 3.345,3.63c1.437,0.809 3.105,1.214 5.002,1.214c1.282,0 2.447,-0.182 3.494,-0.547c1.048,-0.365 1.95,-0.905 2.704,-1.621c0.755,-0.716 1.329,-1.599 1.723,-2.648l9.932,1.837c-0.661,2.262 -1.808,4.236 -3.441,5.924c-1.632,1.688 -3.678,2.997 -6.136,3.929c-2.458,0.932 -5.275,1.397 -8.451,1.397Zm-5.869,-46.228l-9.547,0l0,-0.27l10.564,-10.826l8.418,0l10.581,10.826l0,0.27l-9.581,0l-5.2,-6.231l-5.234,6.231Zm14.009,-14.051l-6.693,-9.81l8.825,0l4.554,9.81l-6.686,0Z" style="fill-rule:nonzero;"/>
        <path d="M452.99,124.391l0,23.705l-10.982,0l0,-40.942l10.369,0l0.175,10.221l-0.659,0c1.074,-3.415 2.705,-6.058 4.893,-7.928c2.188,-1.87 5.011,-2.806 8.467,-2.806c2.838,0 5.311,0.617 7.419,1.851c2.108,1.234 3.746,3.002 4.912,5.305c1.167,2.303 1.75,5.055 1.75,8.259l0,26.04l-10.982,0l0,-24.126c0,-2.543 -0.656,-4.538 -1.968,-5.984c-1.311,-1.446 -3.125,-2.169 -5.441,-2.169c-1.545,0 -2.917,0.338 -4.117,1.015c-1.2,0.676 -2.139,1.651 -2.819,2.925c-0.679,1.273 -1.019,2.818 -1.019,4.634Z" style="fill-rule:nonzero;"/>
        <path d="M488.394,162.578l3.223,-22.722l10.985,0l-6.741,22.722l-7.466,0Z" style="fill-rule:nonzero;"/>
        <path d="M549.548,107.154l0,8.368l-24.292,0l0,-8.368l24.292,0Zm-18.654,-9.741l10.982,0l0,38.699c0,1.304 0.29,2.265 0.87,2.883c0.58,0.618 1.532,0.927 2.856,0.927c0.428,0 1.019,-0.052 1.771,-0.156c0.753,-0.105 1.325,-0.206 1.717,-0.303l1.572,8.236c-1.224,0.363 -2.438,0.615 -3.641,0.757c-1.203,0.142 -2.357,0.213 -3.461,0.213c-4.107,0 -7.245,-0.996 -9.414,-2.989c-2.169,-1.993 -3.253,-4.86 -3.253,-8.6l0,-39.666Z" style="fill-rule:nonzero;"/>
        <path d="M556.669,148.096l0,-40.942l10.644,0l0,7.13l0.439,0c0.743,-2.524 2,-4.434 3.77,-5.731c1.77,-1.297 3.802,-1.945 6.099,-1.945c0.568,0 1.177,0.032 1.829,0.096c0.652,0.064 1.225,0.154 1.722,0.271l0,9.813c-0.486,-0.167 -1.195,-0.303 -2.128,-0.407c-0.933,-0.105 -1.805,-0.157 -2.618,-0.157c-1.676,0 -3.181,0.363 -4.514,1.088c-1.333,0.726 -2.376,1.73 -3.13,3.013c-0.753,1.283 -1.13,2.773 -1.13,4.471l0,23.301l-10.982,0Z" style="fill-rule:nonzero;"/>
        <path d="M597.628,148.891c-2.601,0 -4.931,-0.459 -6.991,-1.376c-2.059,-0.917 -3.678,-2.283 -4.857,-4.097c-1.179,-1.814 -1.769,-4.071 -1.769,-6.769c0,-2.291 0.418,-4.202 1.253,-5.733c0.835,-1.531 1.979,-2.764 3.43,-3.698c1.451,-0.935 3.101,-1.646 4.948,-2.133c1.847,-0.488 3.782,-0.827 5.805,-1.019c2.362,-0.238 4.269,-0.462 5.721,-0.673c1.453,-0.211 2.518,-0.54 3.197,-0.988c0.679,-0.448 1.018,-1.113 1.018,-1.995l0,-0.18c0,-1.168 -0.248,-2.157 -0.744,-2.965c-0.496,-0.808 -1.221,-1.428 -2.174,-1.858c-0.953,-0.431 -2.124,-0.646 -3.514,-0.646c-1.4,0 -2.624,0.213 -3.672,0.639c-1.049,0.426 -1.908,0.994 -2.577,1.706c-0.669,0.711 -1.151,1.51 -1.445,2.396l-10.073,-1.672c0.694,-2.385 1.859,-4.407 3.496,-6.068c1.637,-1.661 3.672,-2.929 6.104,-3.805c2.432,-0.876 5.166,-1.314 8.201,-1.314c2.198,0 4.334,0.26 6.409,0.781c2.075,0.521 3.938,1.335 5.588,2.444c1.65,1.108 2.96,2.542 3.93,4.3c0.97,1.758 1.455,3.881 1.455,6.367l0,27.563l-10.418,0l0,-5.685l-0.36,0c-0.661,1.268 -1.541,2.39 -2.639,3.363c-1.098,0.974 -2.419,1.736 -3.962,2.288c-1.543,0.552 -3.33,0.827 -5.359,0.827Zm3.093,-7.702c1.729,0 3.248,-0.344 4.557,-1.032c1.309,-0.689 2.333,-1.618 3.074,-2.788c0.741,-1.17 1.111,-2.473 1.111,-3.909l0,-4.43c-0.335,0.225 -0.828,0.436 -1.481,0.633c-0.653,0.197 -1.381,0.373 -2.185,0.529c-0.804,0.156 -1.597,0.291 -2.38,0.406c-0.783,0.114 -1.479,0.215 -2.087,0.301c-1.35,0.182 -2.536,0.492 -3.56,0.928c-1.023,0.436 -1.818,1.02 -2.384,1.752c-0.566,0.731 -0.85,1.647 -0.85,2.748c0,1.06 0.267,1.951 0.802,2.672c0.535,0.721 1.266,1.267 2.192,1.637c0.927,0.37 1.991,0.554 3.192,0.554Zm5.321,-39.223l-6.523,0l2.818,-4.997c0.15,-0.264 0.182,-0.463 0.096,-0.596c-0.086,-0.133 -0.268,-0.2 -0.545,-0.2l-5.842,0l0,-5.606l5.842,0c2.054,0 3.672,0.267 4.854,0.802c1.182,0.534 1.993,1.232 2.432,2.093c0.439,0.861 0.555,1.801 0.346,2.821c-0.209,1.02 -0.682,2.01 -1.42,2.969l-2.057,2.714Z" style="fill-rule:nonzero;"/>
        <path d="M629.728,148.096l0,-40.942l10.982,0l0,40.942l-10.982,0Zm5.501,-46.279c-1.654,0 -3.071,-0.553 -4.251,-1.658c-1.18,-1.106 -1.77,-2.433 -1.77,-3.981c0,-1.58 0.59,-2.916 1.77,-4.008c1.18,-1.093 2.597,-1.639 4.251,-1.639c1.661,0 3.083,0.546 4.265,1.637c1.182,1.091 1.773,2.428 1.773,4.009c0,1.55 -0.591,2.877 -1.773,3.983c-1.182,1.105 -2.603,1.658 -4.265,1.658Z" style="fill-rule:nonzero;"/>
        <path d="M678.795,124.391l0,23.705l-10.982,0l0,-40.942l10.369,0l0.175,10.221l-0.659,0c1.074,-3.415 2.705,-6.058 4.893,-7.928c2.188,-1.87 5.011,-2.806 8.467,-2.806c2.838,0 5.311,0.617 7.419,1.851c2.108,1.234 3.746,3.002 4.912,5.305c1.167,2.303 1.75,5.055 1.75,8.259l0,26.04l-10.982,0l0,-24.126c0,-2.543 -0.656,-4.538 -1.968,-5.984c-1.311,-1.446 -3.125,-2.169 -5.441,-2.169c-1.545,0 -2.917,0.338 -4.117,1.015c-1.2,0.676 -2.139,1.651 -2.819,2.925c-0.679,1.273 -1.019,2.818 -1.019,4.634Z" style="fill-rule:nonzero;"/>
        <path d="M732.697,164.283c-3.41,0 -6.381,-0.431 -8.913,-1.292c-2.533,-0.861 -4.594,-2.049 -6.184,-3.563c-1.59,-1.513 -2.687,-3.245 -3.291,-5.196l9.44,-2.612c0.349,0.755 0.88,1.493 1.595,2.214c0.715,0.722 1.67,1.313 2.863,1.773c1.194,0.46 2.677,0.691 4.45,0.691c2.797,0 4.997,-0.643 6.602,-1.929c1.604,-1.286 2.407,-3.283 2.407,-5.993l0,-7.531l-0.86,0c-0.49,1.098 -1.199,2.158 -2.127,3.179c-0.928,1.021 -2.143,1.858 -3.646,2.511c-1.502,0.653 -3.36,0.98 -5.575,0.98c-3.074,0 -5.871,-0.722 -8.391,-2.167c-2.52,-1.445 -4.527,-3.644 -6.021,-6.596c-1.494,-2.952 -2.241,-6.683 -2.241,-11.193c0,-4.619 0.761,-8.478 2.283,-11.577c1.522,-3.1 3.547,-5.432 6.072,-6.996c2.526,-1.564 5.301,-2.346 8.325,-2.346c2.307,0 4.238,0.387 5.793,1.162c1.555,0.774 2.816,1.736 3.782,2.886c0.967,1.149 1.702,2.268 2.205,3.357l0.445,0l0,-6.892l10.819,0l0,40.6c0,3.687 -0.85,6.756 -2.549,9.207c-1.699,2.452 -4.039,4.285 -7.02,5.499c-2.981,1.215 -6.402,1.822 -10.263,1.822Zm0.193,-25.117c1.884,0 3.479,-0.462 4.786,-1.386c1.307,-0.924 2.304,-2.26 2.991,-4.007c0.688,-1.748 1.032,-3.84 1.032,-6.278c0,-2.431 -0.341,-4.546 -1.023,-6.347c-0.682,-1.801 -1.677,-3.201 -2.983,-4.202c-1.307,-1.001 -2.908,-1.501 -4.803,-1.501c-1.916,0 -3.529,0.517 -4.841,1.551c-1.311,1.034 -2.302,2.454 -2.971,4.261c-0.669,1.806 -1.003,3.885 -1.003,6.238c0,2.372 0.337,4.435 1.012,6.188c0.675,1.753 1.668,3.105 2.979,4.057c1.311,0.951 2.919,1.427 4.824,1.427Z" style="fill-rule:nonzero;"/>
        <path d="M772.875,124.391l0,23.705l-10.982,0l0,-54.565l10.784,0l0,23.844l-0.898,0c1.074,-3.415 2.705,-6.058 4.893,-7.928c2.188,-1.87 5.011,-2.806 8.467,-2.806c2.838,0 5.313,0.617 7.427,1.851c2.114,1.234 3.754,3.002 4.92,5.305c1.166,2.303 1.749,5.055 1.749,8.259l0,26.04l-10.999,0l0,-24.126c0,-2.543 -0.656,-4.538 -1.968,-5.984c-1.311,-1.446 -3.125,-2.169 -5.441,-2.169c-1.545,0 -2.917,0.338 -4.117,1.015c-1.2,0.676 -2.139,1.651 -2.819,2.925c-0.679,1.273 -1.019,2.818 -1.019,4.634Z" style="fill-rule:nonzero;"/>
        <path d="M808.585,148.096l0,-40.942l10.982,0l0,40.942l-10.982,0Zm5.501,-46.279c-1.654,0 -3.071,-0.553 -4.251,-1.658c-1.18,-1.106 -1.77,-2.433 -1.77,-3.981c0,-1.58 0.59,-2.916 1.77,-4.008c1.18,-1.093 2.597,-1.639 4.251,-1.639c1.661,0 3.083,0.546 4.265,1.637c1.182,1.091 1.773,2.428 1.773,4.009c0,1.55 -0.591,2.877 -1.773,3.983c-1.182,1.105 -2.603,1.658 -4.265,1.658Z" style="fill-rule:nonzero;"/>
        <path d="M847.427,148.896c-4.179,0 -7.783,-0.856 -10.81,-2.567c-3.027,-1.712 -5.351,-4.142 -6.975,-7.292c-1.623,-3.149 -2.434,-6.883 -2.434,-11.201c0,-4.213 0.806,-7.908 2.419,-11.086c1.613,-3.178 3.894,-5.658 6.842,-7.438c2.949,-1.78 6.418,-2.67 10.406,-2.67c2.674,0 5.172,0.426 7.495,1.278c2.323,0.852 4.361,2.137 6.115,3.854c1.754,1.718 3.124,3.876 4.11,6.476c0.986,2.599 1.479,5.652 1.479,9.159l0,3.083l-34.357,0l0,-6.911l29.006,0l-5.133,1.853c0,-2.132 -0.326,-3.984 -0.977,-5.557c-0.651,-1.574 -1.616,-2.794 -2.894,-3.662c-1.278,-0.868 -2.866,-1.302 -4.765,-1.302c-1.899,0 -3.51,0.439 -4.833,1.318c-1.323,0.879 -2.329,2.071 -3.02,3.577c-0.69,1.506 -1.036,3.218 -1.036,5.136l0,4.866c0,2.368 0.396,4.358 1.189,5.969c0.793,1.611 1.908,2.821 3.345,3.63c1.437,0.809 3.105,1.214 5.002,1.214c1.282,0 2.447,-0.182 3.494,-0.547c1.048,-0.365 1.95,-0.905 2.704,-1.621c0.755,-0.716 1.329,-1.599 1.723,-2.648l9.932,1.837c-0.661,2.262 -1.808,4.236 -3.441,5.924c-1.632,1.688 -3.678,2.997 -6.136,3.929c-2.458,0.932 -5.275,1.397 -8.451,1.397Zm-5.979,-47.234l-9.547,0l0,-0.271l10.564,-10.826l8.418,0l10.581,10.826l0,0.271l-9.581,0l-5.2,-6.231l-5.234,6.231Zm5.304,63.07c-1.654,0 -3.071,-0.553 -4.251,-1.659c-1.18,-1.105 -1.77,-2.432 -1.77,-3.98c0,-1.58 0.59,-2.916 1.77,-4.009c1.18,-1.093 2.597,-1.639 4.251,-1.639c1.661,0 3.083,0.546 4.265,1.637c1.182,1.091 1.773,2.428 1.773,4.009c0,1.55 -0.591,2.877 -1.773,3.983c-1.182,1.105 -2.603,1.658 -4.265,1.658Z" style="fill-rule:nonzero;"/>
        <path d="M873.588,148.096l0,-40.942l10.205,0l0.531,10.184l-0.79,0c0.615,-2.525 1.542,-4.58 2.784,-6.164c1.241,-1.585 2.694,-2.753 4.357,-3.505c1.663,-0.752 3.407,-1.128 5.231,-1.128c2.939,0 5.313,0.935 7.123,2.806c1.81,1.871 3.143,4.757 3.996,8.658l-1.275,0c0.607,-2.631 1.604,-4.793 2.99,-6.487c1.386,-1.694 3.021,-2.947 4.904,-3.759c1.883,-0.813 3.871,-1.219 5.965,-1.219c2.5,0 4.733,0.546 6.699,1.637c1.966,1.091 3.516,2.671 4.65,4.74c1.133,2.068 1.7,4.591 1.7,7.567l0,27.612l-10.982,0l0,-25.511c0,-2.321 -0.626,-4.047 -1.877,-5.178c-1.251,-1.131 -2.791,-1.697 -4.619,-1.697c-1.383,0 -2.581,0.302 -3.596,0.906c-1.014,0.604 -1.792,1.443 -2.335,2.515c-0.542,1.072 -0.813,2.33 -0.813,3.774l0,25.191l-10.626,0l0,-25.814c0,-2.007 -0.592,-3.603 -1.776,-4.79c-1.184,-1.188 -2.718,-1.781 -4.603,-1.781c-1.284,0 -2.446,0.297 -3.488,0.89c-1.041,0.593 -1.864,1.454 -2.468,2.582c-0.604,1.129 -0.906,2.516 -0.906,4.161l0,24.753l-10.982,0Z" style="fill-rule:nonzero;"/>
        <path d="M941.726,162.578l3.223,-22.722l10.985,0l-6.741,22.722l-7.466,0Z" style="fill-rule:nonzero;"/>
    </g>
    <g>
        <path d="M25.024,197.72l0,8.368l-24.292,0l0,-8.368l24.292,0Zm-18.654,-9.741l10.982,0l0,38.699c0,1.304 0.29,2.265 0.87,2.883c0.58,0.618 1.532,0.927 2.856,0.927c0.428,0 1.019,-0.052 1.771,-0.156c0.753,-0.105 1.325,-0.206 1.717,-0.303l1.572,8.236c-1.224,0.363 -2.438,0.615 -3.641,0.757c-1.203,0.142 -2.357,0.213 -3.461,0.213c-4.107,0 -7.245,-0.996 -9.414,-2.989c-2.169,-1.993 -3.253,-4.86 -3.253,-8.6l0,-39.666Z" style="fill-rule:nonzero;"/>
        <path d="M43.31,214.958l0,23.705l-10.982,0l0,-54.565l10.784,0l0,23.844l-0.898,0c1.074,-3.415 2.705,-6.058 4.893,-7.928c2.188,-1.87 5.011,-2.806 8.467,-2.806c2.838,0 5.313,0.617 7.427,1.851c2.114,1.234 3.754,3.002 4.92,5.305c1.166,2.303 1.749,5.055 1.749,8.259l0,26.04l-10.999,0l0,-24.126c0,-2.543 -0.656,-4.538 -1.968,-5.984c-1.311,-1.446 -3.125,-2.169 -5.441,-2.169c-1.545,0 -2.917,0.338 -4.117,1.015c-1.2,0.676 -2.139,1.651 -2.819,2.925c-0.679,1.273 -1.019,2.818 -1.019,4.634Z" style="fill-rule:nonzero;"/>
        <path d="M109.9,204.488l0,-6.767l2.742,0c0.804,0 1.206,-0.402 1.206,-1.206l0,-7.876l8.628,0l0,8.24c0,2.589 -0.73,4.505 -2.191,5.747c-1.46,1.242 -3.385,1.863 -5.775,1.863l-4.61,0Zm-16.783,34.688c-2.825,0 -5.297,-0.617 -7.418,-1.851c-2.12,-1.234 -3.763,-3.005 -4.93,-5.313c-1.166,-2.308 -1.749,-5.058 -1.749,-8.25l0,-26.04l10.982,0l0,24.126c0,2.543 0.659,4.538 1.976,5.984c1.318,1.446 3.134,2.169 5.45,2.169c1.558,0 2.93,-0.338 4.118,-1.015c1.188,-0.677 2.121,-1.658 2.8,-2.943c0.679,-1.286 1.019,-2.824 1.019,-4.617l0,-23.705l10.999,0l0,40.942l-10.387,0l-0.158,-10.221l0.641,0c-1.085,3.437 -2.727,6.086 -4.927,7.945c-2.2,1.859 -5.005,2.788 -8.417,2.788Zm4.954,16.123c-1.654,0 -3.071,-0.553 -4.251,-1.659c-1.18,-1.105 -1.77,-2.432 -1.77,-3.98c0,-1.58 0.59,-2.916 1.77,-4.009c1.18,-1.093 2.597,-1.639 4.251,-1.639c1.661,0 3.083,0.546 4.265,1.637c1.182,1.091 1.773,2.428 1.773,4.009c0,1.55 -0.591,2.877 -1.773,3.983c-1.182,1.105 -2.603,1.658 -4.265,1.658Z" style="fill-rule:nonzero;"/>
        <path d="M146.799,239.463c-4.107,0 -7.656,-0.882 -10.649,-2.646c-2.993,-1.765 -5.301,-4.23 -6.923,-7.397c-1.622,-3.167 -2.433,-6.851 -2.433,-11.05c0,-4.233 0.811,-7.936 2.433,-11.109c1.622,-3.173 3.93,-5.641 6.923,-7.405c2.993,-1.765 6.543,-2.647 10.649,-2.647c2.439,0 4.683,0.316 6.73,0.947c2.048,0.631 3.864,1.535 5.449,2.71c1.585,1.175 2.888,2.603 3.912,4.284c1.023,1.681 1.73,3.57 2.121,5.669l-10.212,1.913c-0.227,-1.063 -0.57,-2.017 -1.029,-2.863c-0.459,-0.846 -1.019,-1.57 -1.682,-2.17c-0.662,-0.601 -1.426,-1.058 -2.292,-1.373c-0.866,-0.315 -1.825,-0.472 -2.878,-0.472c-1.956,0 -3.596,0.526 -4.919,1.579c-1.323,1.052 -2.322,2.514 -2.999,4.385c-0.676,1.871 -1.015,4.042 -1.015,6.513c0,2.435 0.338,4.592 1.015,6.47c0.677,1.879 1.676,3.351 2.999,4.418c1.323,1.067 2.962,1.6 4.919,1.6c1.064,0 2.035,-0.163 2.912,-0.49c0.877,-0.327 1.656,-0.8 2.336,-1.418c0.68,-0.619 1.25,-1.372 1.708,-2.26c0.459,-0.888 0.795,-1.882 1.009,-2.981l10.195,1.893c-0.379,2.161 -1.083,4.094 -2.112,5.799c-1.029,1.705 -2.336,3.163 -3.919,4.374c-1.583,1.211 -3.408,2.135 -5.474,2.772c-2.066,0.637 -4.324,0.956 -6.774,0.956Z" style="fill-rule:nonzero;"/>
        <path d="M201.366,214.958l0,23.705l-10.982,0l0,-54.565l10.784,0l0,23.844l-0.898,0c1.074,-3.415 2.705,-6.058 4.893,-7.928c2.188,-1.87 5.011,-2.806 8.467,-2.806c2.838,0 5.313,0.617 7.427,1.851c2.114,1.234 3.754,3.002 4.92,5.305c1.166,2.303 1.749,5.055 1.749,8.259l0,26.04l-10.999,0l0,-24.126c0,-2.543 -0.656,-4.538 -1.968,-5.984c-1.311,-1.446 -3.125,-2.169 -5.441,-2.169c-1.545,0 -2.917,0.338 -4.117,1.015c-1.2,0.676 -2.139,1.651 -2.819,2.925c-0.679,1.273 -1.019,2.818 -1.019,4.634Z" style="fill-rule:nonzero;"/>
        <path d="M248.519,239.457c-2.601,0 -4.931,-0.459 -6.991,-1.376c-2.059,-0.917 -3.678,-2.283 -4.857,-4.097c-1.179,-1.814 -1.769,-4.071 -1.769,-6.769c0,-2.291 0.418,-4.202 1.253,-5.733c0.835,-1.531 1.979,-2.764 3.43,-3.698c1.451,-0.935 3.101,-1.646 4.948,-2.133c1.847,-0.488 3.782,-0.827 5.805,-1.019c2.362,-0.238 4.269,-0.462 5.721,-0.673c1.453,-0.211 2.518,-0.54 3.197,-0.988c0.679,-0.448 1.018,-1.113 1.018,-1.995l0,-0.18c0,-1.168 -0.248,-2.157 -0.744,-2.965c-0.496,-0.808 -1.221,-1.428 -2.174,-1.858c-0.953,-0.431 -2.124,-0.646 -3.514,-0.646c-1.4,0 -2.624,0.213 -3.672,0.639c-1.049,0.426 -1.908,0.994 -2.577,1.706c-0.669,0.711 -1.151,1.51 -1.445,2.396l-10.073,-1.672c0.694,-2.385 1.859,-4.407 3.496,-6.068c1.637,-1.661 3.672,-2.929 6.104,-3.805c2.432,-0.876 5.166,-1.314 8.201,-1.314c2.198,0 4.334,0.26 6.409,0.781c2.075,0.521 3.938,1.335 5.588,2.444c1.65,1.108 2.96,2.542 3.93,4.3c0.97,1.758 1.455,3.881 1.455,6.367l0,27.563l-10.418,0l0,-5.685l-0.36,0c-0.661,1.268 -1.541,2.39 -2.639,3.363c-1.098,0.974 -2.419,1.736 -3.962,2.288c-1.543,0.552 -3.33,0.827 -5.359,0.827Zm3.093,-7.702c1.729,0 3.248,-0.344 4.557,-1.032c1.309,-0.689 2.333,-1.618 3.074,-2.788c0.741,-1.17 1.111,-2.473 1.111,-3.909l0,-4.43c-0.335,0.225 -0.828,0.436 -1.481,0.633c-0.653,0.197 -1.381,0.373 -2.185,0.529c-0.804,0.156 -1.597,0.291 -2.38,0.406c-0.783,0.114 -1.479,0.215 -2.087,0.301c-1.35,0.182 -2.536,0.492 -3.56,0.928c-1.023,0.436 -1.818,1.02 -2.384,1.752c-0.566,0.731 -0.85,1.647 -0.85,2.748c0,1.06 0.267,1.951 0.802,2.672c0.535,0.721 1.266,1.267 2.192,1.637c0.927,0.37 1.991,0.554 3.192,0.554Zm-1.406,-39.223l-7.562,-11.399l10.189,0l5.087,11.399l-7.714,0Z" style="fill-rule:nonzero;"/>
        <path d="M291.601,214.958l0,23.705l-10.982,0l0,-40.942l10.369,0l0.175,10.221l-0.659,0c1.074,-3.415 2.705,-6.058 4.893,-7.928c2.188,-1.87 5.011,-2.806 8.467,-2.806c2.838,0 5.311,0.617 7.419,1.851c2.108,1.234 3.746,3.002 4.912,5.305c1.167,2.303 1.75,5.055 1.75,8.259l0,26.04l-10.982,0l0,-24.126c0,-2.543 -0.656,-4.538 -1.968,-5.984c-1.311,-1.446 -3.125,-2.169 -5.441,-2.169c-1.545,0 -2.917,0.338 -4.117,1.015c-1.2,0.676 -2.139,1.651 -2.819,2.925c-0.679,1.273 -1.019,2.818 -1.019,4.634Z" style="fill-rule:nonzero;"/>
        <path d="M338.293,214.958l0,23.705l-10.982,0l0,-54.565l10.784,0l0,23.844l-0.898,0c1.074,-3.415 2.705,-6.058 4.893,-7.928c2.188,-1.87 5.011,-2.806 8.467,-2.806c2.838,0 5.313,0.617 7.427,1.851c2.114,1.234 3.754,3.002 4.92,5.305c1.166,2.303 1.749,5.055 1.749,8.259l0,26.04l-10.999,0l0,-24.126c0,-2.543 -0.656,-4.538 -1.968,-5.984c-1.311,-1.446 -3.125,-2.169 -5.441,-2.169c-1.545,0 -2.917,0.338 -4.117,1.015c-1.2,0.676 -2.139,1.651 -2.819,2.925c-0.679,1.273 -1.019,2.818 -1.019,4.634Z" style="fill-rule:nonzero;"/>
    </g>
    <g>
        <path d="M16.196,348.647c-4.217,0 -7.299,-1.23 -9.248,-3.69c-1.949,-2.46 -2.923,-6.085 -2.923,-10.877c0,-2.428 0.208,-5.031 0.623,-7.81c0.415,-2.779 1.054,-5.542 1.917,-8.29c0.863,-2.747 1.965,-5.383 3.306,-7.906c1.342,-2.524 2.923,-4.76 4.744,-6.708c1.821,-1.949 3.913,-3.514 6.277,-4.696c2.364,-1.182 4.983,-1.773 7.858,-1.773c3.514,0 6.325,0.883 8.433,2.65c2.108,1.767 3.163,4.032 3.163,6.795c0,2.12 -0.591,3.887 -1.773,5.301c-1.182,1.414 -2.795,2.12 -4.84,2.12c-1.661,0 -2.859,-0.415 -3.594,-1.246c-0.735,-0.831 -1.102,-1.885 -1.102,-3.163c0,-1.406 0.511,-2.763 1.533,-4.073c1.022,-1.31 2.715,-2.028 5.079,-2.156l0,-0.671c-1.469,-1.086 -3.642,-1.629 -6.517,-1.629c-1.533,0 -2.987,0.287 -4.36,0.861c-1.374,0.573 -2.683,1.577 -3.929,3.011c-1.246,1.435 -2.412,3.379 -3.498,5.834c-1.086,2.454 -2.076,5.561 -2.971,9.321c-0.256,1.02 -0.527,2.168 -0.815,3.443c-0.287,1.275 -0.543,2.582 -0.767,3.92c-0.224,1.339 -0.415,2.661 -0.575,3.968c-0.16,1.307 -0.24,2.502 -0.24,3.586c0,2.613 0.527,4.669 1.581,6.168c1.054,1.497 2.699,2.246 4.935,2.246c2.875,0 5.638,-1.214 8.29,-3.642c2.651,-2.428 5.191,-5.814 7.619,-10.158l2.971,1.438c-1.597,3.067 -3.163,5.734 -4.696,8.002c-1.533,2.268 -3.147,4.121 -4.84,5.558c-1.693,1.438 -3.482,2.508 -5.367,3.21c-1.885,0.703 -3.977,1.054 -6.277,1.054Z" style="fill:#ff4800;fill-opacity:0.8;fill-rule:nonzero;"/>
        <path d="M75.9,348.647c-1.917,0 -3.354,-0.559 -4.312,-1.677c-0.958,-1.118 -1.438,-2.412 -1.438,-3.881c0,-0.703 0.064,-1.438 0.192,-2.204c0.128,-0.767 0.288,-1.469 0.479,-2.108l8.433,-30.762c0.192,-0.831 0.287,-1.565 0.288,-2.204c-0,-1.853 -0.894,-2.779 -2.683,-2.779c-1.725,0 -3.674,0.847 -5.846,2.54c-2.172,1.693 -4.344,3.945 -6.517,6.756c-2.172,2.811 -4.169,6.006 -5.99,9.583c-1.821,3.578 -3.21,7.283 -4.169,11.117l-3.642,14.471l-7.667,0l16.483,-65.838l-8.625,0l0.767,-3.354l17.25,-3.642l-10.829,41.975l0.767,0.287c1.342,-2.492 2.731,-4.935 4.169,-7.331c1.438,-2.396 2.987,-4.536 4.648,-6.421c1.661,-1.885 3.45,-3.402 5.367,-4.552c1.917,-1.15 4.025,-1.725 6.325,-1.725c2.747,0 4.744,0.751 5.99,2.252c1.246,1.501 1.869,3.402 1.869,5.702c0,1.406 -0.256,3.035 -0.767,4.887l-8.817,32.679l1.725,0.767l11.021,-10.925l2.3,1.81l-6.804,7.908c-2.236,2.667 -4.121,4.446 -5.654,5.335c-1.533,0.889 -2.971,1.334 -4.312,1.334Z" style="fill:#ff4800;fill-opacity:0.8;fill-rule:nonzero;"/>
        <path d="M107.046,348.647c-2.683,0 -4.648,-0.751 -5.894,-2.252c-1.246,-1.501 -1.869,-3.402 -1.869,-5.702c0,-1.406 0.256,-3.035 0.767,-4.887l8.529,-31.913l-8.625,0l0.767,-3.354l17.633,-3.642l-11.117,40.633c-0.192,0.767 -0.287,1.501 -0.287,2.204c0,1.853 0.894,2.779 2.683,2.779c1.661,0 3.594,-0.831 5.798,-2.492c2.204,-1.661 4.376,-3.881 6.517,-6.66c2.14,-2.779 4.137,-5.974 5.99,-9.583c1.853,-3.61 3.258,-7.331 4.217,-11.165l3.642,-14.567l8.912,0l2.683,-10.637l7.092,0l-2.204,8.913c-0.319,1.342 -0.974,2.508 -1.965,3.498c-0.99,0.99 -2.603,1.485 -4.84,1.485l-2.875,0l-10.35,41.112l1.725,0.767l11.021,-10.925l2.3,1.81l-6.804,7.908c-2.236,2.667 -4.089,4.446 -5.558,5.335c-1.469,0.889 -2.875,1.334 -4.217,1.334c-1.917,0 -3.306,-0.527 -4.169,-1.581c-0.862,-1.054 -1.294,-2.316 -1.294,-3.785c0,-0.703 0.096,-1.533 0.287,-2.492c0.192,-0.958 0.351,-1.725 0.479,-2.3l2.396,-9.487l-0.767,-0.288c-1.342,2.492 -2.731,4.919 -4.169,7.283c-1.438,2.364 -2.987,4.488 -4.648,6.373c-1.661,1.885 -3.45,3.402 -5.367,4.552c-1.917,1.15 -4.057,1.725 -6.421,1.725Zm27.217,-61.046c-1.278,0 -2.396,-0.192 -3.354,-0.575c-0.958,-0.383 -1.981,-0.831 -3.067,-1.342c-1.278,-0.639 -2.332,-1.15 -3.163,-1.533c-0.831,-0.383 -1.693,-0.575 -2.587,-0.575c-0.831,0 -1.613,0.24 -2.348,0.719c-0.735,0.479 -1.549,1.166 -2.444,2.06l-2.108,-1.725c1.278,-1.533 2.556,-2.955 3.833,-4.265c1.278,-1.31 2.843,-1.965 4.696,-1.965c1.278,0 2.396,0.192 3.354,0.575c0.958,0.383 1.981,0.831 3.067,1.342c1.278,0.639 2.332,1.15 3.162,1.533c0.831,0.383 1.693,0.575 2.588,0.575c0.831,0 1.613,-0.24 2.348,-0.719c0.735,-0.479 1.549,-1.166 2.444,-2.06l2.108,1.725c-1.278,1.533 -2.556,2.955 -3.833,4.265c-1.278,1.31 -2.843,1.965 -4.696,1.965Z" style="fill:#ff4800;fill-opacity:0.8;fill-rule:nonzero;"/>
        <path d="M161.192,348.647c-3.258,0 -5.622,-1.198 -7.092,-3.594c-1.469,-2.396 -2.204,-5.83 -2.204,-10.302c0,-2.619 0.256,-5.367 0.767,-8.242c0.511,-2.875 1.246,-5.718 2.204,-8.529c0.958,-2.811 2.156,-5.494 3.594,-8.05c1.438,-2.556 3.067,-4.792 4.888,-6.708c1.821,-1.917 3.849,-3.45 6.085,-4.6c2.236,-1.15 4.632,-1.725 7.188,-1.725c2.875,0 5.111,0.655 6.708,1.965c1.597,1.31 2.811,3.306 3.642,5.99l0.767,0l3.833,-6.804l4.025,0l-11.308,44.371l1.725,0.767l11.021,-10.925l2.3,1.81l-6.804,7.908c-2.3,2.667 -4.153,4.446 -5.558,5.335c-1.406,0.889 -2.779,1.334 -4.121,1.334c-1.917,0 -3.306,-0.527 -4.169,-1.581c-0.862,-1.054 -1.294,-2.316 -1.294,-3.785c0,-0.703 0.08,-1.533 0.24,-2.492c0.16,-0.958 0.303,-1.725 0.431,-2.3l2.3,-9.008l-0.767,-0.288c-1.342,2.875 -2.667,5.51 -3.977,7.906c-1.31,2.396 -2.715,4.44 -4.217,6.133c-1.501,1.693 -3.083,3.019 -4.744,3.977c-1.661,0.958 -3.482,1.438 -5.462,1.438Zm2.587,-6.133c1.342,0 2.715,-0.495 4.121,-1.485c1.406,-0.99 2.795,-2.3 4.169,-3.929c1.374,-1.629 2.683,-3.466 3.929,-5.51c1.246,-2.044 2.396,-4.137 3.45,-6.277c1.054,-2.14 1.981,-4.217 2.779,-6.229c0.799,-2.013 1.422,-3.785 1.869,-5.319l0.383,-1.342c0.894,-3.067 0.847,-5.606 -0.144,-7.619c-0.99,-2.012 -2.891,-3.019 -5.702,-3.019c-3.45,0 -6.612,1.533 -9.487,4.6c-2.875,3.067 -5.111,7.539 -6.708,13.417c-0.256,1.022 -0.527,2.204 -0.815,3.546c-0.288,1.342 -0.559,2.715 -0.815,4.121c-0.256,1.406 -0.463,2.747 -0.623,4.025c-0.16,1.278 -0.24,2.364 -0.24,3.258c0,2.492 0.256,4.408 0.767,5.75c0.511,1.342 1.533,2.012 3.067,2.012Z" style="fill:#ff4800;fill-opacity:0.8;fill-rule:nonzero;"/>
        <path d="M236.804,348.647c-4.217,0 -7.299,-1.23 -9.248,-3.69c-1.949,-2.46 -2.923,-6.085 -2.923,-10.877c0,-2.428 0.208,-5.031 0.623,-7.81c0.415,-2.779 1.054,-5.542 1.917,-8.29c0.862,-2.747 1.965,-5.383 3.306,-7.906c1.342,-2.524 2.923,-4.76 4.744,-6.708c1.821,-1.949 3.913,-3.514 6.277,-4.696c2.364,-1.182 4.983,-1.773 7.858,-1.773c3.514,0 6.325,0.883 8.433,2.65c2.108,1.767 3.163,4.032 3.163,6.795c0,2.12 -0.591,3.887 -1.773,5.301c-1.182,1.414 -2.795,2.12 -4.84,2.12c-1.661,0 -2.859,-0.415 -3.594,-1.246c-0.735,-0.831 -1.102,-1.885 -1.102,-3.163c0,-1.406 0.511,-2.763 1.533,-4.073c1.022,-1.31 2.715,-2.028 5.079,-2.156l0,-0.671c-1.469,-1.086 -3.642,-1.629 -6.517,-1.629c-1.533,0 -2.987,0.287 -4.36,0.861c-1.374,0.573 -2.683,1.577 -3.929,3.011c-1.246,1.435 -2.412,3.379 -3.498,5.834c-1.086,2.454 -2.076,5.561 -2.971,9.321c-0.256,1.02 -0.527,2.168 -0.815,3.443c-0.287,1.275 -0.543,2.582 -0.767,3.92c-0.224,1.339 -0.415,2.661 -0.575,3.968c-0.16,1.307 -0.24,2.502 -0.24,3.586c0,2.613 0.527,4.669 1.581,6.168c1.054,1.497 2.699,2.246 4.935,2.246c2.875,0 5.638,-1.214 8.29,-3.642c2.651,-2.428 5.191,-5.814 7.619,-10.158l2.971,1.438c-1.597,3.067 -3.163,5.734 -4.696,8.002c-1.533,2.268 -3.147,4.121 -4.84,5.558c-1.693,1.438 -3.482,2.508 -5.367,3.21c-1.885,0.703 -3.977,1.054 -6.277,1.054Z" style="fill:#ff4800;fill-opacity:0.8;fill-rule:nonzero;"/>
        <path d="M296.508,348.647c-1.917,0 -3.354,-0.559 -4.313,-1.677c-0.958,-1.118 -1.437,-2.412 -1.437,-3.881c0,-0.703 0.064,-1.438 0.192,-2.204c0.128,-0.767 0.287,-1.469 0.479,-2.108l8.433,-30.762c0.192,-0.831 0.287,-1.565 0.288,-2.204c-0,-1.853 -0.894,-2.779 -2.683,-2.779c-1.725,0 -3.674,0.847 -5.846,2.54c-2.172,1.693 -4.344,3.945 -6.517,6.756c-2.172,2.811 -4.169,6.006 -5.99,9.583c-1.821,3.578 -3.21,7.283 -4.169,11.117l-3.642,14.471l-7.667,0l16.483,-65.838l-8.625,0l0.767,-3.354l17.25,-3.642l-10.829,41.975l0.767,0.287c1.342,-2.492 2.731,-4.935 4.169,-7.331c1.438,-2.396 2.987,-4.536 4.648,-6.421c1.661,-1.885 3.45,-3.402 5.367,-4.552c1.917,-1.15 4.025,-1.725 6.325,-1.725c2.747,0 4.744,0.751 5.99,2.252c1.246,1.501 1.869,3.402 1.869,5.702c0,1.406 -0.256,3.035 -0.767,4.887l-8.817,32.679l1.725,0.767l11.021,-10.925l2.3,1.81l-6.804,7.908c-2.236,2.667 -4.121,4.446 -5.654,5.335c-1.533,0.889 -2.971,1.334 -4.312,1.334Z" style="fill:#ff4800;fill-opacity:0.8;fill-rule:nonzero;"/>
        <path d="M327.463,348.647c-3.258,0 -5.622,-1.198 -7.092,-3.594c-1.469,-2.396 -2.204,-5.83 -2.204,-10.302c0,-2.619 0.256,-5.367 0.767,-8.242c0.511,-2.875 1.246,-5.718 2.204,-8.529c0.958,-2.811 2.156,-5.494 3.594,-8.05c1.438,-2.556 3.067,-4.792 4.888,-6.708c1.821,-1.917 3.849,-3.45 6.085,-4.6c2.236,-1.15 4.632,-1.725 7.188,-1.725c2.875,0 5.111,0.655 6.708,1.965c1.597,1.31 2.811,3.306 3.642,5.99l0.767,0l3.833,-6.804l4.025,0l-11.308,44.371l1.725,0.767l11.021,-10.925l2.3,1.81l-6.804,7.908c-2.3,2.667 -4.153,4.446 -5.558,5.335c-1.406,0.889 -2.779,1.334 -4.121,1.334c-1.917,0 -3.306,-0.527 -4.169,-1.581c-0.862,-1.054 -1.294,-2.316 -1.294,-3.785c0,-0.703 0.08,-1.533 0.24,-2.492c0.16,-0.958 0.303,-1.725 0.431,-2.3l2.3,-9.008l-0.767,-0.288c-1.342,2.875 -2.667,5.51 -3.977,7.906c-1.31,2.396 -2.715,4.44 -4.217,6.133c-1.501,1.693 -3.083,3.019 -4.744,3.977c-1.661,0.958 -3.482,1.438 -5.462,1.438Zm2.587,-6.133c1.342,0 2.715,-0.495 4.121,-1.485c1.406,-0.99 2.795,-2.3 4.169,-3.929c1.374,-1.629 2.683,-3.466 3.929,-5.51c1.246,-2.044 2.396,-4.137 3.45,-6.277c1.054,-2.14 1.981,-4.217 2.779,-6.229c0.799,-2.013 1.422,-3.785 1.869,-5.319l0.383,-1.342c0.894,-3.067 0.847,-5.606 -0.144,-7.619c-0.99,-2.012 -2.891,-3.019 -5.702,-3.019c-3.45,0 -6.612,1.533 -9.487,4.6c-2.875,3.067 -5.111,7.539 -6.708,13.417c-0.256,1.022 -0.527,2.204 -0.815,3.546c-0.287,1.342 -0.559,2.715 -0.815,4.121c-0.256,1.406 -0.463,2.747 -0.623,4.025c-0.16,1.278 -0.24,2.364 -0.24,3.258c0,2.492 0.256,4.408 0.767,5.75c0.511,1.342 1.533,2.012 3.067,2.012Zm12.267,-52.325l10.254,-16.388l6.612,3.354l-14.279,14.279l-2.588,-1.246Z" style="fill:#ff4800;fill-opacity:0.8;fill-rule:nonzero;"/>
        <path d="M363.688,367.814c-2.364,0 -4.233,-0.559 -5.606,-1.677c-1.374,-1.118 -2.06,-2.54 -2.06,-4.265c0,-1.725 0.559,-3.21 1.677,-4.456c1.118,-1.246 2.54,-1.869 4.265,-1.869c1.469,0 2.603,0.431 3.402,1.294c0.799,0.863 1.198,1.933 1.198,3.21c0,0.831 -0.176,1.629 -0.527,2.396c-0.351,0.767 -0.783,1.374 -1.294,1.821l0.671,0.479c2.108,-0.958 4.201,-2.572 6.277,-4.84c2.076,-2.268 4.297,-5.702 6.66,-10.302l-3.929,-47.629l-4.312,0l0.958,-3.929l18.017,0l-0.958,3.929l-5.942,0l2.396,36.608l0.767,0l20.317,-36.608l-5.942,0l0.958,-3.929l15.237,0l-0.958,3.929l-4.025,0l-30.858,52.421c-2.939,4.983 -5.798,8.465 -8.577,10.446c-2.779,1.981 -5.383,2.971 -7.81,2.971Z" style="fill:#ff4800;fill-opacity:0.8;fill-rule:nonzero;"/>
        <path d="M437.863,301.976l-4.312,0l0.958,-3.929l18.017,0l-0.958,3.929l-5.942,0l2.396,36.225l0.767,0l20.317,-36.225l-5.942,0l0.958,-3.929l15.525,0l-1.054,3.929l-4.025,0l-27.217,45.521l-5.75,0l-3.737,-45.521Z" style="fill-rule:nonzero;"/>
        <path d="M485.492,348.647c-3.258,0 -5.622,-1.198 -7.092,-3.594c-1.469,-2.396 -2.204,-5.83 -2.204,-10.302c0,-2.619 0.256,-5.367 0.767,-8.242c0.511,-2.875 1.246,-5.718 2.204,-8.529c0.958,-2.811 2.156,-5.494 3.594,-8.05c1.438,-2.556 3.067,-4.792 4.888,-6.708c1.821,-1.917 3.849,-3.45 6.085,-4.6c2.236,-1.15 4.632,-1.725 7.188,-1.725c2.875,0 5.111,0.655 6.708,1.965c1.597,1.31 2.811,3.306 3.642,5.99l0.767,0l3.833,-6.804l4.025,0l-11.308,44.371l1.725,0.767l11.021,-10.925l2.3,1.81l-6.804,7.908c-2.3,2.667 -4.153,4.446 -5.558,5.335c-1.406,0.889 -2.779,1.334 -4.121,1.334c-1.917,0 -3.306,-0.527 -4.169,-1.581c-0.862,-1.054 -1.294,-2.316 -1.294,-3.785c0,-0.703 0.08,-1.533 0.24,-2.492c0.16,-0.958 0.303,-1.725 0.431,-2.3l2.3,-9.008l-0.767,-0.288c-1.342,2.875 -2.667,5.51 -3.977,7.906c-1.31,2.396 -2.715,4.44 -4.217,6.133c-1.501,1.693 -3.083,3.019 -4.744,3.977c-1.661,0.958 -3.482,1.438 -5.462,1.438Zm2.587,-6.133c1.342,0 2.715,-0.495 4.121,-1.485c1.406,-0.99 2.795,-2.3 4.169,-3.929c1.374,-1.629 2.683,-3.466 3.929,-5.51c1.246,-2.044 2.396,-4.137 3.45,-6.277c1.054,-2.14 1.981,-4.217 2.779,-6.229c0.799,-2.013 1.422,-3.785 1.869,-5.319l0.383,-1.342c0.894,-3.067 0.847,-5.606 -0.144,-7.619c-0.99,-2.012 -2.891,-3.019 -5.702,-3.019c-3.45,0 -6.612,1.533 -9.487,4.6c-2.875,3.067 -5.111,7.539 -6.708,13.417c-0.256,1.022 -0.527,2.204 -0.815,3.546c-0.287,1.342 -0.559,2.715 -0.815,4.121c-0.256,1.406 -0.463,2.747 -0.623,4.025c-0.16,1.278 -0.24,2.364 -0.24,3.258c0,2.492 0.256,4.408 0.767,5.75c0.511,1.342 1.533,2.012 3.067,2.012Zm8.433,-66.029l7.188,-2.683l3.45,16.675l-2.683,0.958l-7.954,-14.95Z" style="fill-rule:nonzero;"/>
    </g>
    <g>
        <path d="M16.196,457.482c-4.217,0 -7.299,-1.23 -9.248,-3.69c-1.949,-2.46 -2.923,-6.085 -2.923,-10.877c0,-2.428 0.208,-5.031 0.623,-7.81c0.415,-2.779 1.054,-5.542 1.917,-8.29c0.862,-2.747 1.965,-5.383 3.306,-7.906c1.342,-2.524 2.923,-4.76 4.744,-6.708c1.821,-1.949 3.913,-3.514 6.277,-4.696c2.364,-1.182 4.983,-1.773 7.858,-1.773c3.514,0 6.325,0.883 8.433,2.65c2.108,1.767 3.162,4.032 3.162,6.795c0,2.12 -0.591,3.887 -1.773,5.301c-1.182,1.414 -2.795,2.12 -4.84,2.12c-1.661,0 -2.859,-0.415 -3.594,-1.246c-0.735,-0.831 -1.102,-1.885 -1.102,-3.162c0,-1.406 0.511,-2.763 1.533,-4.073c1.022,-1.31 2.715,-2.028 5.079,-2.156l0,-0.671c-1.469,-1.086 -3.642,-1.629 -6.517,-1.629c-1.533,0 -2.987,0.287 -4.36,0.861c-1.374,0.573 -2.683,1.577 -3.929,3.011c-1.246,1.435 -2.412,3.379 -3.498,5.834c-1.086,2.454 -2.076,5.561 -2.971,9.321c-0.256,1.02 -0.527,2.168 -0.815,3.443c-0.288,1.275 -0.543,2.582 -0.767,3.92c-0.224,1.339 -0.415,2.661 -0.575,3.968c-0.16,1.307 -0.24,2.502 -0.24,3.586c0,2.613 0.527,4.669 1.581,6.168c1.054,1.497 2.699,2.246 4.935,2.246c2.875,0 5.638,-1.214 8.29,-3.642c2.651,-2.428 5.191,-5.814 7.619,-10.158l2.971,1.438c-1.597,3.067 -3.162,5.734 -4.696,8.002c-1.533,2.268 -3.147,4.121 -4.84,5.558c-1.693,1.438 -3.482,2.508 -5.367,3.21c-1.885,0.703 -3.977,1.054 -6.277,1.054Z" style="fill:#1e88e5;fill-opacity:0.8;fill-rule:nonzero;"/>
        <path d="M54.242,457.482c-2.683,0 -4.648,-0.751 -5.894,-2.252c-1.246,-1.501 -1.869,-3.402 -1.869,-5.702c0,-1.406 0.256,-3.035 0.767,-4.887l8.529,-31.912l-8.625,0l0.767,-3.354l17.633,-3.642l-11.117,40.633c-0.192,0.767 -0.287,1.501 -0.287,2.204c0,1.853 0.894,2.779 2.683,2.779c1.661,0 3.594,-0.831 5.798,-2.492c2.204,-1.661 4.376,-3.881 6.517,-6.66c2.14,-2.779 4.137,-5.974 5.99,-9.583c1.853,-3.61 3.258,-7.331 4.217,-11.165l3.642,-14.567l8.912,0l2.683,-10.637l7.092,0l-2.204,8.912c-0.319,1.342 -0.974,2.508 -1.965,3.498c-0.99,0.99 -2.603,1.485 -4.84,1.485l-2.875,0l-10.35,41.113l1.725,0.767l11.021,-10.925l2.3,1.81l-6.804,7.908c-2.236,2.667 -4.089,4.446 -5.558,5.335c-1.469,0.889 -2.875,1.334 -4.217,1.334c-1.917,0 -3.306,-0.527 -4.169,-1.581c-0.862,-1.054 -1.294,-2.316 -1.294,-3.785c0,-0.703 0.096,-1.533 0.287,-2.492c0.192,-0.958 0.351,-1.725 0.479,-2.3l2.396,-9.488l-0.767,-0.287c-1.342,2.492 -2.731,4.919 -4.169,7.283c-1.437,2.364 -2.987,4.488 -4.648,6.373c-1.661,1.885 -3.45,3.402 -5.367,4.552c-1.917,1.15 -4.057,1.725 -6.421,1.725Zm18.592,-58.458l10.254,-16.387l6.612,3.354l-14.279,14.279l-2.588,-1.246Z" style="fill:#1e88e5;fill-opacity:0.8;fill-rule:nonzero;"/>
        <path d="M108.579,457.482c-2.683,0 -4.648,-0.751 -5.894,-2.252c-1.246,-1.501 -1.869,-3.402 -1.869,-5.702c0,-1.406 0.256,-3.035 0.767,-4.887l8.529,-31.912l-8.625,0l0.767,-3.354l17.633,-3.642l-11.117,40.633c-0.192,0.767 -0.287,1.501 -0.287,2.204c0,1.853 0.894,2.779 2.683,2.779c1.725,0 3.674,-0.831 5.846,-2.492c2.172,-1.661 4.344,-3.881 6.517,-6.66c2.172,-2.779 4.169,-5.974 5.99,-9.583c1.821,-3.61 3.21,-7.331 4.169,-11.165l3.642,-14.567l7.667,0l-11.213,44.371l1.725,0.767l11.021,-10.925l2.3,1.81l-6.804,7.908c-2.236,2.667 -4.089,4.446 -5.558,5.335c-1.469,0.889 -2.875,1.334 -4.217,1.334c-1.917,0 -3.306,-0.527 -4.169,-1.581c-0.862,-1.054 -1.294,-2.316 -1.294,-3.785c0,-0.703 0.096,-1.533 0.287,-2.492c0.192,-0.958 0.351,-1.725 0.479,-2.3l2.396,-9.488l-0.767,-0.287c-1.342,2.492 -2.731,4.919 -4.169,7.283c-1.438,2.364 -2.987,4.488 -4.648,6.373c-1.661,1.885 -3.45,3.402 -5.367,4.552c-1.917,1.15 -4.057,1.725 -6.421,1.725Z" style="fill:#1e88e5;fill-opacity:0.8;fill-rule:nonzero;"/>
        <path d="M206.521,457.482c-1.917,0 -3.354,-0.559 -4.312,-1.677c-0.958,-1.118 -1.438,-2.412 -1.438,-3.881c0,-0.703 0.064,-1.438 0.192,-2.204c0.128,-0.767 0.288,-1.469 0.479,-2.108l8.433,-30.762c0.192,-0.831 0.287,-1.565 0.287,-2.204c0,-1.853 -0.894,-2.779 -2.683,-2.779c-1.661,0 -3.594,0.847 -5.798,2.54c-2.204,1.693 -4.392,3.945 -6.565,6.756c-2.172,2.811 -4.169,6.006 -5.99,9.583c-1.821,3.578 -3.21,7.283 -4.169,11.117l-3.642,14.471l-7.667,0l10.829,-43.604l-8.625,0l0.767,-3.354l17.058,-3.642l-4.983,19.742l0.767,0.287c1.342,-2.492 2.731,-4.935 4.169,-7.331c1.438,-2.396 2.987,-4.536 4.648,-6.421c1.661,-1.885 3.45,-3.402 5.367,-4.552c1.917,-1.15 4.025,-1.725 6.325,-1.725c2.747,0 4.744,0.751 5.99,2.252c1.246,1.501 1.869,3.402 1.869,5.702c0,1.406 -0.256,3.035 -0.767,4.887l-8.817,32.679l1.725,0.767l11.021,-10.925l2.3,1.81l-6.804,7.908c-2.236,2.667 -4.121,4.446 -5.654,5.335c-1.533,0.889 -2.971,1.334 -4.312,1.334Z" style="fill:#1e88e5;fill-opacity:0.8;fill-rule:nonzero;"/>
        <path d="M237.475,457.482c-3.258,0 -5.622,-1.198 -7.092,-3.594c-1.469,-2.396 -2.204,-5.83 -2.204,-10.302c0,-2.619 0.256,-5.367 0.767,-8.242c0.511,-2.875 1.246,-5.718 2.204,-8.529c0.958,-2.811 2.156,-5.494 3.594,-8.05c1.438,-2.556 3.067,-4.792 4.888,-6.708c1.821,-1.917 3.849,-3.45 6.085,-4.6c2.236,-1.15 4.632,-1.725 7.188,-1.725c2.875,0 5.111,0.655 6.708,1.965c1.597,1.31 2.811,3.306 3.642,5.99l0.767,0l3.833,-6.804l4.025,0l-11.308,44.371l1.725,0.767l11.021,-10.925l2.3,1.81l-6.804,7.908c-2.3,2.667 -4.153,4.446 -5.558,5.335c-1.406,0.889 -2.779,1.334 -4.121,1.334c-1.917,0 -3.306,-0.527 -4.169,-1.581c-0.862,-1.054 -1.294,-2.316 -1.294,-3.785c0,-0.703 0.08,-1.533 0.24,-2.492c0.16,-0.958 0.303,-1.725 0.431,-2.3l2.3,-9.008l-0.767,-0.288c-1.342,2.875 -2.667,5.51 -3.977,7.906c-1.31,2.396 -2.715,4.44 -4.217,6.133c-1.501,1.693 -3.083,3.019 -4.744,3.977c-1.661,0.958 -3.482,1.438 -5.462,1.438Zm2.587,-6.133c1.342,0 2.715,-0.495 4.121,-1.485c1.406,-0.99 2.795,-2.3 4.169,-3.929c1.374,-1.629 2.683,-3.466 3.929,-5.51c1.246,-2.044 2.396,-4.137 3.45,-6.277c1.054,-2.14 1.981,-4.217 2.779,-6.229c0.799,-2.013 1.422,-3.785 1.869,-5.319l0.383,-1.342c0.894,-3.067 0.847,-5.606 -0.144,-7.619c-0.99,-2.013 -2.891,-3.019 -5.702,-3.019c-3.45,0 -6.612,1.533 -9.487,4.6c-2.875,3.067 -5.111,7.539 -6.708,13.417c-0.256,1.022 -0.527,2.204 -0.815,3.546c-0.287,1.342 -0.559,2.715 -0.815,4.121c-0.256,1.406 -0.463,2.747 -0.623,4.025c-0.16,1.278 -0.24,2.364 -0.24,3.258c0,2.492 0.256,4.408 0.767,5.75c0.511,1.342 1.533,2.012 3.067,2.012Zm3.45,20.317c-1.342,0 -2.332,-0.415 -2.971,-1.246c-0.639,-0.831 -0.958,-1.693 -0.958,-2.588l0,-0.815c0,-0.288 0.064,-0.591 0.192,-0.91c0.319,-1.086 0.878,-1.997 1.677,-2.731c0.799,-0.735 1.901,-1.102 3.306,-1.102c1.342,0 2.332,0.415 2.971,1.246c0.639,0.831 0.958,1.693 0.958,2.587l0,0.815c0,0.288 -0.064,0.591 -0.192,0.91c-0.319,1.086 -0.878,1.997 -1.677,2.731c-0.799,0.735 -1.901,1.102 -3.306,1.102Z" style="fill:#1e88e5;fill-opacity:0.8;fill-rule:nonzero;"/>
        <path d="M313.087,457.482c-1.917,0 -3.354,-0.559 -4.312,-1.677c-0.958,-1.118 -1.438,-2.412 -1.438,-3.881c0,-0.703 0.064,-1.438 0.192,-2.204c0.128,-0.767 0.288,-1.469 0.479,-2.108l8.433,-30.762c0.192,-0.831 0.288,-1.565 0.288,-2.204c0,-1.853 -0.894,-2.779 -2.683,-2.779c-1.661,0 -3.594,0.847 -5.798,2.54c-2.204,1.693 -4.392,3.945 -6.565,6.756c-2.172,2.811 -4.169,6.006 -5.99,9.583c-1.821,3.578 -3.21,7.283 -4.169,11.117l-3.642,14.471l-7.667,0l10.829,-43.604l-8.625,0l0.767,-3.354l17.058,-3.642l-4.983,19.742l0.767,0.287c1.342,-2.492 2.731,-4.935 4.169,-7.331c1.437,-2.396 2.987,-4.536 4.648,-6.421c1.661,-1.885 3.45,-3.402 5.367,-4.552c1.917,-1.15 4.025,-1.725 6.325,-1.725c2.747,0 4.744,0.751 5.99,2.252c1.246,1.501 1.869,3.402 1.869,5.702c0,1.406 -0.256,3.035 -0.767,4.887l-8.817,32.679l1.725,0.767l11.021,-10.925l2.3,1.81l-6.804,7.908c-2.236,2.667 -4.121,4.446 -5.654,5.335c-1.533,0.889 -2.971,1.334 -4.313,1.334Z" style="fill:#1e88e5;fill-opacity:0.8;fill-rule:nonzero;"/>
        <path d="M367.521,457.482c-4.217,0 -7.299,-1.23 -9.248,-3.69c-1.949,-2.46 -2.923,-6.085 -2.923,-10.877c0,-2.428 0.208,-5.031 0.623,-7.81c0.415,-2.779 1.054,-5.542 1.917,-8.29c0.862,-2.747 1.965,-5.383 3.306,-7.906c1.342,-2.524 2.923,-4.76 4.744,-6.708c1.821,-1.949 3.913,-3.514 6.277,-4.696c2.364,-1.182 4.983,-1.773 7.858,-1.773c3.514,0 6.325,0.883 8.433,2.65c2.108,1.767 3.162,4.032 3.162,6.795c0,2.12 -0.591,3.887 -1.773,5.301c-1.182,1.414 -2.795,2.12 -4.84,2.12c-1.661,0 -2.859,-0.415 -3.594,-1.246c-0.735,-0.831 -1.102,-1.885 -1.102,-3.162c0,-1.406 0.511,-2.763 1.533,-4.073c1.022,-1.31 2.715,-2.028 5.079,-2.156l0,-0.671c-1.469,-1.086 -3.642,-1.629 -6.517,-1.629c-1.533,0 -2.987,0.287 -4.36,0.861c-1.374,0.573 -2.683,1.577 -3.929,3.011c-1.246,1.435 -2.412,3.379 -3.498,5.834c-1.086,2.454 -2.076,5.561 -2.971,9.321c-0.256,1.02 -0.527,2.168 -0.815,3.443c-0.287,1.275 -0.543,2.582 -0.767,3.92c-0.224,1.339 -0.415,2.661 -0.575,3.968c-0.16,1.307 -0.24,2.502 -0.24,3.586c0,2.613 0.527,4.669 1.581,6.168c1.054,1.497 2.699,2.246 4.935,2.246c2.875,0 5.638,-1.214 8.29,-3.642c2.651,-2.428 5.191,-5.814 7.619,-10.158l2.971,1.438c-1.597,3.067 -3.162,5.734 -4.696,8.002c-1.533,2.268 -3.147,4.121 -4.84,5.558c-1.693,1.438 -3.482,2.508 -5.367,3.21c-1.885,0.703 -3.977,1.054 -6.277,1.054Z" style="fill:#1e88e5;fill-opacity:0.8;fill-rule:nonzero;"/>
        <path d="M405.567,457.482c-2.683,0 -4.648,-0.751 -5.894,-2.252c-1.246,-1.501 -1.869,-3.402 -1.869,-5.702c0,-1.406 0.256,-3.035 0.767,-4.887l8.529,-31.912l-8.625,0l0.767,-3.354l17.633,-3.642l-11.117,40.633c-0.192,0.767 -0.287,1.501 -0.287,2.204c0,1.853 0.894,2.779 2.683,2.779c1.661,0 3.594,-0.831 5.798,-2.492c2.204,-1.661 4.376,-3.881 6.517,-6.66c2.14,-2.779 4.137,-5.974 5.99,-9.583c1.853,-3.61 3.258,-7.331 4.217,-11.165l3.642,-14.567l8.912,0l2.683,-10.637l7.092,0l-2.204,8.912c-0.319,1.342 -0.974,2.508 -1.965,3.498c-0.99,0.99 -2.603,1.485 -4.84,1.485l-2.875,0l-10.35,41.113l1.725,0.767l11.021,-10.925l2.3,1.81l-6.804,7.908c-2.236,2.667 -4.089,4.446 -5.558,5.335c-1.469,0.889 -2.875,1.334 -4.217,1.334c-1.917,0 -3.306,-0.527 -4.169,-1.581c-0.863,-1.054 -1.294,-2.316 -1.294,-3.785c0,-0.703 0.096,-1.533 0.287,-2.492c0.192,-0.958 0.351,-1.725 0.479,-2.3l2.396,-9.488l-0.767,-0.287c-1.342,2.492 -2.731,4.919 -4.169,7.283c-1.437,2.364 -2.987,4.488 -4.648,6.373c-1.661,1.885 -3.45,3.402 -5.367,4.552c-1.917,1.15 -4.057,1.725 -6.421,1.725Zm18.592,-58.458l10.254,-16.387l6.612,3.354l-14.279,14.279l-2.588,-1.246Z" style="fill:#1e88e5;fill-opacity:0.8;fill-rule:nonzero;"/>
        <path d="M459.904,457.482c-2.683,0 -4.648,-0.751 -5.894,-2.252c-1.246,-1.501 -1.869,-3.402 -1.869,-5.702c0,-1.406 0.256,-3.035 0.767,-4.887l8.529,-31.912l-8.625,0l0.767,-3.354l17.633,-3.642l-11.117,40.633c-0.192,0.767 -0.287,1.501 -0.287,2.204c0,1.853 0.894,2.779 2.683,2.779c1.725,0 3.674,-0.831 5.846,-2.492c2.172,-1.661 4.344,-3.881 6.517,-6.66c2.172,-2.779 4.169,-5.974 5.99,-9.583c1.821,-3.61 3.21,-7.331 4.169,-11.165l3.642,-14.567l7.667,0l-11.213,44.371l1.725,0.767l11.021,-10.925l2.3,1.81l-6.804,7.908c-2.236,2.667 -4.089,4.446 -5.558,5.335c-1.469,0.889 -2.875,1.334 -4.217,1.334c-1.917,0 -3.306,-0.527 -4.169,-1.581c-0.862,-1.054 -1.294,-2.316 -1.294,-3.785c0,-0.703 0.096,-1.533 0.287,-2.492c0.192,-0.958 0.351,-1.725 0.479,-2.3l2.396,-9.488l-0.767,-0.287c-1.342,2.492 -2.731,4.919 -4.169,7.283c-1.437,2.364 -2.987,4.488 -4.648,6.373c-1.661,1.885 -3.45,3.402 -5.367,4.552c-1.917,1.15 -4.057,1.725 -6.421,1.725Z" style="fill:#1e88e5;fill-opacity:0.8;fill-rule:nonzero;"/>
        <path d="M556.217,457.482c-1.917,0 -3.354,-0.559 -4.312,-1.677c-0.958,-1.118 -1.438,-2.412 -1.438,-3.881c0,-0.703 0.064,-1.438 0.192,-2.204c0.128,-0.767 0.288,-1.469 0.479,-2.108l8.433,-30.762c0.192,-0.831 0.287,-1.565 0.287,-2.204c0,-1.853 -0.894,-2.779 -2.683,-2.779c-1.725,0 -3.674,0.847 -5.846,2.54c-2.172,1.693 -4.344,3.945 -6.517,6.756c-2.172,2.811 -4.169,6.006 -5.99,9.583c-1.821,3.578 -3.21,7.283 -4.169,11.117l-3.642,14.471l-7.667,0l16.483,-65.837l-8.625,0l0.767,-3.354l17.25,-3.642l-10.829,41.975l0.767,0.287c1.342,-2.492 2.731,-4.935 4.169,-7.331c1.438,-2.396 2.987,-4.536 4.648,-6.421c1.661,-1.885 3.45,-3.402 5.367,-4.552c1.917,-1.15 4.025,-1.725 6.325,-1.725c2.747,0 4.744,0.751 5.99,2.252c1.246,1.501 1.869,3.402 1.869,5.702c0,1.406 -0.256,3.035 -0.767,4.887l-8.817,32.679l1.725,0.767l11.021,-10.925l2.3,1.81l-6.804,7.908c-2.236,2.667 -4.121,4.446 -5.654,5.335c-1.533,0.889 -2.971,1.334 -4.312,1.334Z" style="fill:#1e88e5;fill-opacity:0.8;fill-rule:nonzero;"/>
        <path d="M592.442,453.552c1.917,0 3.658,-0.447 5.223,-1.342c1.565,-0.894 2.955,-2.108 4.169,-3.642c1.214,-1.533 2.252,-3.338 3.115,-5.415c0.862,-2.076 1.581,-4.265 2.156,-6.565c0.703,-2.811 1.278,-5.159 1.725,-7.044c0.447,-1.885 0.799,-3.466 1.054,-4.744c0.256,-1.278 0.431,-2.332 0.527,-3.163c0.096,-0.831 0.144,-1.629 0.144,-2.396c0,-2.875 -0.527,-5.191 -1.581,-6.948c-1.054,-1.757 -2.923,-2.635 -5.606,-2.635c-1.917,0 -3.658,0.447 -5.223,1.342c-1.565,0.894 -2.955,2.108 -4.169,3.642c-1.214,1.533 -2.252,3.338 -3.115,5.415c-0.862,2.076 -1.581,4.265 -2.156,6.565c-0.703,2.811 -1.278,5.159 -1.725,7.044c-0.447,1.885 -0.799,3.466 -1.054,4.744c-0.256,1.278 -0.431,2.332 -0.527,3.163c-0.096,0.831 -0.144,1.629 -0.144,2.396c0,2.875 0.527,5.191 1.581,6.948c1.054,1.757 2.923,2.635 5.606,2.635Zm-0.288,3.929c-4.856,0 -8.481,-1.549 -10.877,-4.648c-2.396,-3.099 -3.594,-7.299 -3.594,-12.602c0,-3.642 0.575,-7.491 1.725,-11.548c1.15,-4.057 2.827,-7.794 5.031,-11.213c2.204,-3.418 4.919,-6.229 8.146,-8.433c3.226,-2.204 6.916,-3.306 11.069,-3.306c4.856,0 8.481,1.549 10.877,4.648c2.396,3.099 3.594,7.299 3.594,12.602c0,3.642 -0.575,7.491 -1.725,11.548c-1.15,4.057 -2.827,7.794 -5.031,11.212c-2.204,3.418 -4.919,6.229 -8.146,8.433c-3.226,2.204 -6.916,3.306 -11.069,3.306Zm-0.575,-59.992l14.663,-14.279l5.558,0l7.763,14.471l-2.396,1.246l-9.296,-8.913l-14.088,8.913l-2.204,-1.438Zm-2.492,74.175c-1.342,0 -2.332,-0.415 -2.971,-1.246c-0.639,-0.831 -0.958,-1.693 -0.958,-2.588l0,-0.815c0,-0.288 0.064,-0.591 0.192,-0.91c0.319,-1.086 0.878,-1.997 1.677,-2.731c0.799,-0.735 1.901,-1.102 3.306,-1.102c1.342,0 2.332,0.415 2.971,1.246c0.639,0.831 0.958,1.693 0.958,2.587l0,0.815c0,0.288 -0.064,0.591 -0.192,0.91c-0.319,1.086 -0.878,1.997 -1.677,2.731c-0.799,0.735 -1.901,1.102 -3.306,1.102Z" style="fill:#1e88e5;fill-opacity:0.8;fill-rule:nonzero;"/>
    </g>
</svg>
