<?xml version="1.0" encoding="UTF-8" standalone="no"?><!DOCTYPE svg PUBLIC "-//W3C//DTD SVG 1.1//EN" "http://www.w3.org/Graphics/SVG/1.1/DTD/svg11.dtd"><svg width="100%" height="100%" viewBox="0 0 1334 1334" version="1.1" xmlns="http://www.w3.org/2000/svg" xmlns:xlink="http://www.w3.org/1999/xlink" xml:space="preserve" xmlns:serif="http://www.serif.com/" style="fill-rule:evenodd;clip-rule:evenodd;stroke-linejoin:round;stroke-miterlimit:2;"><path d="M202.161,555.236c0,-93.316 23.419,-163.122 70.258,-209.418c46.839,-46.296 109.321,-69.444 187.446,-69.444c81.019,0 146.394,22.877 196.126,68.631c49.732,45.754 74.599,105.885 74.599,180.393c0,45.573 -10.579,88.162 -31.738,127.767c-21.159,39.605 -65.375,82.556 -132.65,128.852c-56.424,39.786 -97.566,69.716 -123.427,89.789c-25.861,20.074 -43.132,38.61 -51.812,55.61l341.254,0l0,137.804l-539.28,0c1.085,-69.444 16.366,-127.677 45.844,-174.696c29.478,-47.02 80.566,-97.114 153.266,-150.282c84.997,-61.849 136.809,-105.794 155.436,-131.836c18.627,-26.042 27.941,-55.158 27.941,-87.348c0,-32.19 -10.037,-59.136 -30.111,-80.838c-20.074,-21.701 -47.291,-32.552 -81.651,-32.552c-34.361,0 -61.397,10.67 -81.109,32.01c-19.712,21.34 -29.568,59.86 -29.568,115.56l-150.825,0Z" style="fill:url(#_Linear1);fill-rule:nonzero;"/><path d="M791.984,413.092l22.244,0c61.126,0 107.784,-12.478 139.974,-37.435c32.19,-24.957 50.094,-58.051 53.711,-99.284l127.496,0l0,788.845l-155.707,0l0,-543.077l-187.717,0l0,-109.049Z" style="fill:url(#_Linear2);fill-rule:nonzero;"/><defs><linearGradient id="_Linear1" x1="0" y1="0" x2="1" y2="0" gradientUnits="userSpaceOnUse" gradientTransform="matrix(1026.666667,-773.333333,773.333333,1026.666667,193.333333,1053.333333)"><stop offset="0" style="stop-color:#ff4800;stop-opacity:1"/><stop offset="0.49" style="stop-color:#ff9b00;stop-opacity:1"/><stop offset="1" style="stop-color:#ffb600;stop-opacity:1"/></linearGradient><linearGradient id="_Linear2" x1="0" y1="0" x2="1" y2="0" gradientUnits="userSpaceOnUse" gradientTransform="matrix(1026.666667,-773.333333,773.333333,1026.666667,193.333333,1053.333333)"><stop offset="0" style="stop-color:#ff4800;stop-opacity:1"/><stop offset="0.49" style="stop-color:#ff9b00;stop-opacity:1"/><stop offset="1" style="stop-color:#ffb600;stop-opacity:1"/></linearGradient></defs></svg>